<?xml version="1.0" encoding="UTF-8" standalone="no"?>
<svg
   width="240"
   height="230"
   viewBox="0 0 240 230"
   fill="none"
   version="1.1"
   id="svg2671"
   sodipodi:docname="buttons.svg"
   inkscape:version="1.1.1 (3bf5ae0d25, 2021-09-20)"
   xmlns:inkscape="http://www.inkscape.org/namespaces/inkscape"
   xmlns:sodipodi="http://sodipodi.sourceforge.net/DTD/sodipodi-0.dtd"
   xmlns="http://www.w3.org/2000/svg"
   xmlns:svg="http://www.w3.org/2000/svg">
  <defs
     id="defs2675" />
  <sodipodi:namedview
     id="namedview2673"
     pagecolor="#ffffff"
     bordercolor="#666666"
     borderopacity="1.0"
     inkscape:pageshadow="2"
     inkscape:pageopacity="0.0"
     inkscape:pagecheckerboard="0"
     showgrid="false"
     inkscape:zoom="3.4"
     inkscape:cx="119.85294"
     inkscape:cy="113.67647"
     inkscape:window-width="1920"
     inkscape:window-height="986"
     inkscape:window-x="-11"
     inkscape:window-y="-11"
     inkscape:window-maximized="1"
     inkscape:current-layer="svg2671" />
  <rect
     x="6"
     y="6"
     width="227"
     height="59"
     rx="8"
     fill="#1A56DB"
     id="rect2655" />
  <rect
     x="30"
     y="30"
     width="179"
     height="11"
     rx="4"
     fill="white"
     id="rect2657" />
  <rect
     x="6"
     y="85"
     width="227"
     height="59"
     rx="8"
     fill="#1A56DB"
     id="rect2659" />
  <rect
     x="30"
     y="109"
     width="18.0268"
     height="11"
     rx="4"
     fill="white"
     id="rect2661" />
  <rect
     x="58.0267"
     y="109"
     width="150.973"
     height="11"
     rx="4"
     fill="white"
     id="rect2663" />
  <rect
     x="6"
     y="164"
     width="227"
     height="59"
     rx="8"
     fill="#1A56DB"
     id="rect2665" />
  <rect
     x="30"
     y="188"
     width="150.973"
     height="11"
     rx="4"
     fill="white"
     id="rect2667" />
  <rect
     x="190.973"
     y="188"
     width="18.0268"
     height="11"
     rx="4"
     fill="white"
     id="rect2669" />
  <path
     style="fill:#000000;stroke-width:0.294118"
     d="M 12.68282,64.691668 C 9.6136453,64.174135 6.9890331,61.588068 6.3348601,58.436932 6.1119883,57.363365 6.0371905,49.942309 6.094028,34.542805 6.1858884,9.6542347 6.0486852,11.282574 8.2601814,8.8347118 8.8714832,8.1580737 9.9100791,7.3162512 10.568172,6.9639951 L 11.764706,6.3235294 118.96344,6.2484105 c 95.05287,-0.066608 107.35056,-0.024691 108.53873,0.369957 1.738,0.5772708 3.32509,1.9035977 4.33636,3.6238735 l 0.80853,1.375406 0.0803,23.459044 c 0.0801,23.394418 0.0786,23.463068 -0.54802,24.919721 -0.69868,1.624138 -2.6703,3.611579 -4.32949,4.364253 -1.00773,0.457141 -8.674,0.495156 -107.40871,0.532611 C 61.963235,64.915453 13.471975,64.824738 12.68282,64.691668 Z M 206.90176,40.661309 c 1.85425,-0.935394 2.64762,-3.337106 2.22355,-6.731211 -0.17973,-1.438519 -0.38667,-1.878314 -1.32572,-2.817355 L 206.68685,30 119.66696,30.0011 c -86.762235,0.0011 -87.022784,0.0029 -87.993482,0.594676 -1.437151,0.876206 -1.894605,2.248195 -1.774195,5.32113 0.113816,2.904656 0.578952,3.852791 2.327507,4.744403 0.953355,0.486127 5.728989,0.514247 87.33203,0.514247 81.59889,0 86.37933,-0.02815 87.34294,-0.514247 z"
     id="path2750" />
  <path
     style="fill:#000000;stroke-width:0.294118"
     d="M 11.909861,143.54872 C 10.483033,143.1147 9.3563856,142.37866 8.2581409,141.16303 6.0381454,138.70576 6.1764706,140.47359 6.1764706,114.55882 V 91.323529 l 0.82385,-1.677675 c 0.9178352,-1.869065 2.0564735,-2.966573 4.0290914,-3.883549 l 1.323529,-0.615246 H 119.41176 c 87.76658,0 107.25575,0.06976 108.15159,0.387098 1.63403,0.578834 3.87309,2.742417 4.60941,4.454025 l 0.63499,1.476083 -0.0804,23.459045 -0.0803,23.45904 -0.80853,1.37541 c -1.00308,1.70635 -2.57545,3.02846 -4.30092,3.61639 -1.17405,0.40003 -13.0449,0.4466 -108.10471,0.4241 -58.732212,-0.0139 -107.11758,-0.12619 -107.523039,-0.24953 z m 34.147163,-24.00418 c 1.535894,-0.79424 2.028867,-1.99413 2.030111,-4.94127 0.0012,-3.12696 -0.442303,-4.24825 -2.034894,-5.14333 -1.05537,-0.59316 -1.529409,-0.63638 -6.974638,-0.63595 -4.980908,3.8e-4 -5.991005,0.0763 -6.850813,0.5147 -1.748555,0.89161 -2.213691,1.83975 -2.327507,4.7444 -0.12041,3.07294 0.337044,4.44493 1.774195,5.32114 0.895875,0.5462 1.473586,0.59366 7.238187,0.59467 5.082159,8.8e-4 6.430847,-0.0849 7.145359,-0.45436 z m 161.742566,-0.65728 c 0.93905,-0.93905 1.14599,-1.37884 1.32572,-2.81736 0.42407,-3.3941 -0.3693,-5.79581 -2.22355,-6.73121 -0.96228,-0.48543 -5.07405,-0.51425 -73.37235,-0.51425 -68.302451,0 -72.409398,0.0288 -73.361445,0.51425 -1.843765,0.94016 -2.226789,1.80383 -2.226789,5.02111 0,3.12768 0.402033,4.23124 1.874353,5.14499 0.70883,0.43992 6.811353,0.4802 73.822011,0.48738 L 206.68685,120 Z"
     id="path2789" />
  <path
     style="fill:#000000;stroke-width:0.294118"
     d="m 12.352941,222.66601 c -2.4944769,-0.61226 -4.4045205,-2.20234 -5.4989368,-4.57777 l -0.6775336,-1.47059 v -23.2353 -23.23529 L 6.8734439,168.744 c 0.3833352,-0.77168 1.2982688,-1.93233 2.0331855,-2.57923 2.5460606,-2.24113 -7.7240073,-2.05879 111.2476506,-1.97519 l 106.90454,0.0751 1.57517,0.87246 c 0.86634,0.47986 1.95455,1.33274 2.41826,1.89529 1.78986,2.17141 1.74401,1.46157 1.71949,26.62288 -0.0164,16.79905 -0.11505,23.21367 -0.36765,23.8988 -0.70816,1.92077 -2.13103,3.51732 -3.91568,4.39361 l -1.7237,0.84637 L 120,222.83835 c -58.720588,0.0243 -107.161765,-0.0532 -107.647059,-0.17234 z M 178.88733,198.62648 c 1.68565,-0.79989 2.13971,-1.86838 2.14098,-5.03814 0.001,-3.12397 -0.38257,-4.17523 -1.85141,-5.07084 -0.92718,-0.56533 -2.05616,-0.57414 -73.70101,-0.57522 -72.436675,-0.001 -72.763654,0.002 -73.718685,0.59177 -1.419469,0.87728 -1.904453,2.16158 -1.903164,5.03981 0.0013,2.80145 0.500717,3.96463 2.128565,4.95714 0.949638,0.579 1.633753,0.58446 73.414124,0.58555 67.07451,8.8e-4 72.53242,-0.0354 73.4906,-0.49007 z m 27.8431,0.0833 c 0.53693,-0.22435 1.29371,-0.85302 1.68173,-1.39706 0.6262,-0.87799 0.70549,-1.30465 0.70549,-3.79621 0,-3.13855 -0.33516,-3.97737 -2.00128,-5.00874 -0.87413,-0.5411 -1.3965,-0.57614 -7.46533,-0.50066 l -6.52543,0.0812 -0.90573,0.86834 c -1.16138,1.11344 -1.58377,2.7142 -1.41542,5.36415 0.15014,2.36325 0.6303,3.3382 2.07917,4.22162 0.84988,0.51821 1.51124,0.5732 6.90523,0.5742 4.42295,8.8e-4 6.21774,-0.10437 6.94157,-0.4068 z"
     id="path2828" />
</svg>
