<?xml version="1.0" encoding="UTF-8" standalone="no"?>
<svg
   width="560"
   height="240"
   viewBox="0 0 560 240"
   fill="none"
   version="1.1"
   id="svg51"
   sodipodi:docname="alerts.svg"
   inkscape:version="1.1.1 (3bf5ae0d25, 2021-09-20)"
   xmlns:inkscape="http://www.inkscape.org/namespaces/inkscape"
   xmlns:sodipodi="http://sodipodi.sourceforge.net/DTD/sodipodi-0.dtd"
   xmlns="http://www.w3.org/2000/svg"
   xmlns:svg="http://www.w3.org/2000/svg">
  <defs
     id="defs55" />
  <sodipodi:namedview
     id="namedview53"
     pagecolor="#ffffff"
     bordercolor="#666666"
     borderopacity="1.0"
     inkscape:pageshadow="2"
     inkscape:pageopacity="0.0"
     inkscape:pagecheckerboard="0"
     showgrid="false"
     inkscape:zoom="1.5241071"
     inkscape:cx="186.66667"
     inkscape:cy="6.2331576"
     inkscape:window-width="1920"
     inkscape:window-height="986"
     inkscape:window-x="-11"
     inkscape:window-y="-11"
     inkscape:window-maximized="1"
     inkscape:current-layer="svg51" />
  <rect
     x="10"
     y="11"
     width="539"
     height="59"
     rx="16"
     fill="#374151"
     id="rect33"
     style="fill:#000000" />
  <rect
     x="34"
     y="34.5"
     width="491"
     height="12"
     rx="2"
     fill="#1C64F2"
     id="rect35" />
  <rect
     x="10"
     y="90"
     width="539"
     height="59"
     rx="16"
     fill="#374151"
     id="rect37" />
  <rect
     x="34"
     y="113.5"
     width="258"
     height="12"
     rx="2"
     fill="#1C64F2"
     id="rect39" />
  <path
     d="M503.964 126.512L517.988 112.488M517.988 126.512L503.964 112.488"
     stroke="#1C64F2"
     stroke-width="3"
     stroke-linecap="round"
     stroke-linejoin="round"
     id="path41" />
  <rect
     x="10"
     y="169"
     width="539"
     height="59"
     rx="16"
     fill="#374151"
     id="rect43" />
  <path
     d="M47 202.5H46V198.5H45M46 194.5H46.01M55 198.5C55 199.682 54.7672 200.852 54.3149 201.944C53.8626 203.036 53.1997 204.028 52.364 204.864C51.5282 205.7 50.5361 206.363 49.4442 206.815C48.3522 207.267 47.1819 207.5 46 207.5C44.8181 207.5 43.6478 207.267 42.5558 206.815C41.4639 206.363 40.4718 205.7 39.636 204.864C38.8003 204.028 38.1374 203.036 37.6851 201.944C37.2328 200.852 37 199.682 37 198.5C37 196.113 37.9482 193.824 39.636 192.136C41.3239 190.448 43.6131 189.5 46 189.5C48.3869 189.5 50.6761 190.448 52.364 192.136C54.0518 193.824 55 196.113 55 198.5Z"
     stroke="#1C64F2"
     stroke-width="2"
     stroke-linecap="round"
     stroke-linejoin="round"
     id="path45" />
  <rect
     x="74"
     y="192.5"
     width="258"
     height="12"
     rx="2"
     fill="#1C64F2"
     id="rect47" />
  <path
     d="M503.964 205.512L517.988 191.488M517.988 205.512L503.964 191.488"
     stroke="#1C64F2"
     stroke-width="3"
     stroke-linecap="round"
     stroke-linejoin="round"
     id="path49" />
  <path
     style="fill:#000000;stroke-width:0.656122"
     d="m 22.854024,148.31235 c -3.391814,-0.81131 -7.735304,-3.70785 -9.573855,-6.38452 -2.846049,-4.14344 -3.216068,-7.13589 -2.990334,-24.18373 0.193921,-14.64525 0.304874,-15.89614 1.626893,-18.34164 1.832255,-3.389344 5.160028,-6.556448 8.237945,-7.840209 2.189664,-0.913281 28.739615,-1.017436 259.353237,-1.017436 230.61362,0 257.16357,0.104155 259.35323,1.017436 3.07792,1.283761 6.4057,4.450865 8.23795,7.840209 1.31819,2.43843 1.43439,3.71761 1.63893,18.04335 0.14031,9.82668 -0.0476,16.63415 -0.51815,18.76968 -0.9822,4.45778 -3.79204,8.11924 -8.03434,10.46942 l -3.47786,1.92669 -255.88752,0.099 C 140.08202,148.765 23.997258,148.5858 22.854024,148.31235 Z m 485.614566,-23.60241 2.59864,-2.68157 3.43677,3.39408 c 2.92637,2.89001 3.58794,3.26861 4.45467,2.54929 1.50255,-1.247 1.31507,-1.73486 -2.04859,-5.33088 l -3.06648,-3.27832 3.15608,-3.20426 c 2.07919,-2.11093 3.02058,-3.55731 2.75901,-4.23897 -0.69245,-1.80448 -2.69853,-1.12742 -5.68962,1.92028 l -2.90011,2.95499 -3.00011,-2.95499 c -3.10929,-3.06255 -5.00575,-3.7026 -5.68969,-1.92028 -0.26178,0.68217 0.68693,2.13526 2.78444,4.26479 l 3.18151,3.23008 -3.09192,3.13911 c -3.07143,3.11832 -3.84298,5.01181 -2.27176,5.57519 1.17907,0.42278 2.44014,-0.37746 5.38716,-3.41854 z m -216.87404,0.34347 c 0.48018,-0.5786 0.69339,-2.839 0.57242,-6.06913 l -0.19275,-5.14714 H 163.04628 34.118336 l -0.192749,5.14714 c -0.120962,3.23013 0.09224,5.49053 0.57243,6.06913 1.150521,1.38629 255.946003,1.38629 257.096533,0 z"
     id="path248" />
  <path
     style="fill:#000000;stroke-width:0.656122"
     d="m 20.011716,226.30895 c -3.640306,-1.64784 -6.24365,-4.05659 -8.097582,-7.49231 -1.351062,-2.5038 -1.416184,-3.43912 -1.416184,-20.33978 0,-16.02633 0.116611,-17.93423 1.223117,-20.01172 1.711898,-3.21412 4.235506,-5.78435 7.306467,-7.44146 l 2.624487,-1.41618 H 279.50791 537.3638 l 2.72505,1.45723 c 3.58539,1.9173 6.59728,5.64823 7.79174,9.6519 1.40695,4.71588 1.37245,30.91391 -0.047,35.69374 -1.28189,4.3166 -4.29589,7.76498 -8.49664,9.72117 l -3.28542,1.52992 -256.54364,-0.008 -256.543645,-0.008 z m 30.791087,-18.81143 c 3.046861,-1.55364 4.717903,-4.02142 5.116263,-7.55566 0.712062,-6.31739 -2.865278,-10.89654 -8.970961,-11.48322 -8.253492,-0.79305 -13.847117,7.96941 -9.702397,15.19889 2.646844,4.6168 8.681536,6.32609 13.557095,3.83999 z m 456.848937,-3.25493 3.13912,-3.09191 3.13912,3.09191 c 3.29399,3.24446 4.96647,3.83096 5.67313,1.98944 0.2959,-0.77109 -0.56854,-2.10654 -2.87598,-4.443 l -3.29904,-3.34053 3.38899,-3.38899 c 2.89835,-2.89836 3.26576,-3.53748 2.53778,-4.41465 -1.29665,-1.56236 -2.02094,-1.28649 -5.42488,2.06627 l -3.13912,3.09191 -3.23007,-3.1815 c -2.12953,-2.09751 -3.58263,-3.04622 -4.2648,-2.78445 -1.78232,0.68395 -1.14226,2.58041 1.92028,5.6897 l 2.955,3.00011 -2.955,2.90011 c -2.76176,2.71046 -3.55458,4.43307 -2.51758,5.47008 0.89473,0.89473 1.8926,0.35994 4.95305,-2.6545 z m -175.72428,-0.57042 c 0.78968,-2.05788 0.42811,-9.93077 -0.49112,-10.69366 -0.65359,-0.54244 -34.87641,-0.69419 -129.09197,-0.57243 l -128.202601,0.16568 -0.193538,5.19098 c -0.106447,2.85504 -0.0419,5.58615 0.143438,6.06913 0.279864,0.72931 22.124421,0.87815 128.887261,0.87815 116.61577,0 128.58724,-0.0964 128.94853,-1.03785 z"
     id="path287" />
  <path
     style="fill:#1a1a1a;stroke-width:0.656122"
     d="m 42.164077,204.99518 c -0.987848,-0.53601 -2.242681,-1.83817 -2.788518,-2.8937 -3.474891,-6.7197 3.442091,-13.66065 10.154395,-10.18959 2.730531,1.41202 3.943977,3.49697 3.943977,6.77657 0,2.39156 -0.37329,3.24546 -2.230814,5.10299 -1.781384,1.78138 -2.739728,2.22552 -4.756884,2.20454 -1.389338,-0.0145 -3.334308,-0.46481 -4.322156,-1.00081 z m 5.559091,-3.59122 c -0.09555,-1.24904 -0.307725,-2.64005 -0.471499,-3.09113 -0.432352,-1.19082 -3.619566,-1.04639 -3.619566,0.16403 0,0.5413 0.295255,0.98418 0.656122,0.98418 0.360867,0 0.656122,0.83656 0.656122,1.85901 0,2.16762 0.523767,2.86198 1.93637,2.56705 0.72443,-0.15125 0.9663,-0.86417 0.842451,-2.48314 z m -0.597441,-6.31137 c 0.593352,-0.59335 -0.877113,-2.26528 -1.599602,-1.81876 -0.904621,0.55909 -0.684373,2.25048 0.293051,2.25048 0.481156,0 1.069104,-0.19427 1.306551,-0.43172 z"
     id="path326" />
  <path
     style="fill:#e6e6e6;stroke-width:0.656122"
     d="m 74.745065,203.16865 c -0.186836,-0.48689 -0.251383,-2.92274 -0.143438,-5.41301 l 0.196264,-4.52775 126.959579,-0.17942 c 69.82777,-0.0987 127.6239,-0.0192 128.43585,0.17653 1.36531,0.32919 1.47628,0.71963 1.47628,5.19416 0,3.80656 -0.22131,4.92314 -1.03785,5.23648 -0.57081,0.21904 -58.3024,0.39826 -128.29241,0.39826 -106.189161,0 -127.310806,-0.14655 -127.594275,-0.88525 z"
     id="path439" />
  <path
     style="fill:#e6e6e6;stroke-width:0.656122"
     d="m 502.9174,205.83081 c 0,-0.46617 1.32865,-2.15154 2.95255,-3.74528 1.6239,-1.59374 2.95255,-3.19516 2.95255,-3.55871 0,-0.36355 -1.38955,-2.07176 -3.08788,-3.79602 -2.42177,-2.45874 -2.91602,-3.30687 -2.2912,-3.93169 0.62482,-0.62482 1.54167,-0.0609 4.25027,2.61401 l 3.45359,3.41069 3.41797,-3.41796 c 2.70022,-2.70022 3.58701,-3.2489 4.22303,-2.61288 0.63601,0.63601 0.094,1.52731 -2.58103,4.24448 l -3.38611,3.43941 3.33753,3.48798 c 2.50154,2.6143 3.14987,3.67566 2.5883,4.23722 -0.56156,0.56156 -1.61643,-0.1072 -4.21131,-2.66985 l -3.46209,-3.41908 -3.23327,3.28262 c -3.1872,3.23586 -4.9229,4.09441 -4.9229,2.43506 z"
     id="path515" />
  <path
     style="fill:#333333;stroke-width:0.656122"
     d="m 40.957145,203.44824 c -1.570299,-1.57029 -1.917895,-2.4713 -1.917895,-4.97138 0,-2.50008 0.347596,-3.40109 1.917895,-4.97138 3.787247,-3.78725 10.383496,-2.04361 11.809723,3.12176 1.307183,4.73423 -1.916574,8.7389 -7.0348,8.7389 -2.282939,0 -3.242409,-0.38538 -4.774923,-1.9179 z m 6.954632,-0.0745 c 0.231212,-0.37411 0.222685,-1.85039 -0.01895,-3.28061 -0.39884,-2.36071 -0.622516,-2.60041 -2.426555,-2.60041 -1.761457,0 -1.934286,0.16771 -1.521293,1.47627 0.25626,0.81195 0.619462,2.28823 0.807116,3.28061 0.346563,1.83275 2.293611,2.52547 3.159682,1.12414 z m -0.466398,-8.99007 c -0.329381,-1.71033 -2.501032,-1.90108 -2.501032,-0.21967 0,0.93897 0.421378,1.36035 1.360353,1.36035 0.938975,0 1.292308,-0.35333 1.140679,-1.14068 z"
     id="path554" />
  <path
     style="fill:#ffffff;stroke-width:0.16403"
     d="m 44.586897,208.31463 c -3.781499,-0.51317 -7.1963,-3.59121 -8.169878,-7.36419 -0.31806,-1.2326 -0.355301,-3.52676 -0.07616,-4.69185 0.304188,-1.26964 1.234312,-3.0938 2.120403,-4.15855 0.962263,-1.15628 2.850606,-2.46271 4.291964,-2.96936 1.608895,-0.56554 4.098594,-0.63914 5.828115,-0.17229 3.091878,0.83459 5.723657,3.27255 6.782881,6.28333 0.498975,1.41832 0.624126,4.08296 0.259899,5.53362 -1.251654,4.98513 -5.992962,8.22382 -11.037222,7.53929 z m 3.56728,-2.06197 c 2.821445,-0.82873 4.923468,-2.97092 5.649181,-5.75713 1.098855,-4.21878 -1.475813,-8.66656 -5.6471,-9.75545 -5.215604,-1.3615 -10.183206,2.41268 -10.183206,7.73678 0,3.63718 2.416665,6.83296 5.905097,7.80885 1.051873,0.29427 3.218691,0.27752 4.276028,-0.0331 z"
     id="path704" />
  <path
     style="fill:#ffffff;stroke-width:0.16403"
     d="m 45.3335,203.12702 c -0.148878,-0.17905 -0.243875,-0.839 -0.280492,-1.94858 -0.05185,-1.57109 -0.07964,-1.68888 -0.436857,-1.85164 -0.523462,-0.23851 -0.66267,-0.77215 -0.332768,-1.27565 0.24522,-0.37425 0.355868,-0.40544 1.280718,-0.36103 1.288543,0.0619 1.424859,0.28855 1.428208,2.37498 0.0022,1.36103 0.03404,1.51627 0.33048,1.61035 0.242075,0.0768 0.32806,0.24819 0.32806,0.65376 0,0.97102 -0.104588,1.06856 -1.145678,1.06856 -0.679489,0 -1.010064,-0.0764 -1.171671,-0.27075 z"
     id="path780" />
  <path
     style="fill:#ffffff;stroke-width:0.16403"
     d="m 45.271831,194.97235 c -0.475246,-0.72532 0.208864,-1.60668 1.041882,-1.34229 0.166743,0.0529 0.390732,0.2884 0.497755,0.52329 0.443494,0.97337 -0.952078,1.71572 -1.539637,0.819 z"
     id="path819" />
  <path
     style="fill:#000000;stroke-width:0.16403"
     d="m 44.355254,205.20662 c -1.24387,-0.16239 -2.45373,-0.85861 -3.550287,-2.04302 -1.426582,-1.54088 -1.601686,-2.05326 -1.601686,-4.68674 0,-1.90045 0.04856,-2.31906 0.34248,-2.95255 0.576595,-1.24271 1.907735,-2.54323 3.314345,-3.23809 1.216234,-0.60082 1.294878,-0.61662 3.069215,-0.61662 1.771585,0 1.854544,0.0166 3.057349,0.61114 2.354408,1.16382 3.748527,3.25993 3.883926,5.83963 0.09479,1.80594 -0.167819,2.91143 -0.980813,4.1289 -1.475943,2.21024 -4.416472,3.36442 -7.534529,2.95735 z m 3.44132,-1.59816 c 0.373786,-0.42533 0.387312,-0.52135 0.294647,-2.09157 -0.111976,-1.89745 -0.479135,-3.32512 -0.961098,-3.73716 -0.261029,-0.22316 -0.637607,-0.28705 -1.691772,-0.28705 -1.941744,0 -1.923243,-0.0475 -1.170207,3.00628 0.337737,1.36964 0.738768,2.6523 0.891181,2.85036 0.72487,0.94197 1.932846,1.06067 2.637249,0.25914 z m -0.506592,-8.28098 c 0.489766,-0.48977 0.05025,-1.88952 -0.700747,-2.23169 -0.62334,-0.28401 -0.872496,-0.24513 -1.324283,0.20665 -0.498067,0.49807 -0.522805,1.20469 -0.06265,1.78967 0.281617,0.35802 0.473058,0.4322 1.115407,0.4322 0.426492,0 0.864017,-0.0886 0.972277,-0.19683 z"
     id="path858" />
  <path
     style="fill:#000000;stroke-width:0.0579935"
     d="m 88.15016,204.42281 c -6.066545,-0.0797 -10.493663,-0.20292 -12.468608,-0.34709 -0.656356,-0.0479 -0.905494,-0.0883 -1.014887,-0.16466 -0.226224,-0.15784 -0.505641,-0.61256 -0.574927,-0.93563 -0.07317,-0.34118 -0.08125,-6.4274 -0.01073,-8.08818 0.03863,-0.90985 0.06077,-1.07585 0.172413,-1.29277 0.178652,-0.34711 0.544135,-0.6947 0.903427,-0.85919 l 0.304363,-0.13934 34.862789,-0.0384 34.86279,-0.0384 v 0.28997 0.28998 l -24.48776,0.0386 c -13.46827,0.0213 -29.306977,0.0386 -35.197123,0.0386 l -10.709356,1e-5 -0.03337,0.42045 c -0.01835,0.23125 -0.07326,1.373 -0.122023,2.53722 -0.138161,3.29899 -0.108493,6.5321 0.06407,6.98178 0.06158,0.16047 0.215827,0.2062 0.991493,0.29395 3.212732,0.36344 16.447818,0.53185 45.890719,0.58393 9.32971,0.0165 18.45716,0.0456 20.28323,0.0647 l 3.32013,0.0347 v 0.19604 0.19604 l -26.8655,-0.009 c -14.77602,-0.005 -28.353034,-0.029 -30.171131,-0.0529 z"
     id="path1008" />
  <path
     style="fill:#ffffff;stroke-width:0.656122"
     d="m 36.250732,124.84932 c -1.793832,-0.27174 -1.804335,-0.30364 -1.804335,-5.48037 v -5.20704 l 128.435853,0.16568 128.43585,0.16567 0.19001,4.99488 0.19001,4.99488 -2.48644,0.41091 c -2.70383,0.44683 -250.004734,0.40322 -252.960948,-0.0446 z"
     id="path1084" />
  <path
     style="fill:#ffffff;stroke-width:0.656122"
     d=""
     id="path1123" />
  <path
     style="fill:#ffffff;stroke-width:0.656122"
     d=""
     id="path1162" />
  <path
     style="fill:#ffffff;stroke-width:0.656122"
     d="m 503.37173,127.52326 c -0.85358,-0.85358 -0.45275,-1.60578 2.588,-4.85658 l 3.04234,-3.2525 -3.04234,-3.2525 c -1.67328,-1.78888 -3.04233,-3.56041 -3.04233,-3.93673 0,-1.43666 1.70936,-0.57182 4.70853,2.38225 l 3.11329,3.06648 3.27832,-3.06648 c 1.80308,-1.68657 3.53702,-3.06649 3.8532,-3.06649 1.6964,0 1.13417,1.26243 -1.95561,4.39107 l -3.43914,3.4824 3.58626,3.6321 c 2.91866,2.95597 3.40305,3.74569 2.60207,4.24232 -0.74185,0.45997 -1.83233,-0.22687 -4.42882,-2.78953 l -3.44464,-3.39976 -3.4824,3.43914 c -1.91532,1.89153 -3.68685,3.23469 -3.93673,2.98481 z"
     id="path1201" />
  <path
     style="fill:#ffffff;stroke-width:0.656122"
     d="m 34.721967,45.044152 c -0.18702,-0.487367 -0.251718,-2.923611 -0.143773,-5.413877 l 0.196264,-4.527756 H 279.50791 524.24136 v 5.248975 5.248975 L 279.65168,45.76537 C 74.761067,45.903508 35.006812,45.786448 34.721967,45.044152 Z"
     id="path1240" />
</svg>
