<?xml version="1.0" encoding="UTF-8" standalone="no"?>
<svg
   width="138"
   height="83"
   version="1.1"
   id="svg1607"
   sodipodi:docname="avatars.svg"
   inkscape:version="1.1.1 (3bf5ae0d25, 2021-09-20)"
   xmlns:inkscape="http://www.inkscape.org/namespaces/inkscape"
   xmlns:sodipodi="http://sodipodi.sourceforge.net/DTD/sodipodi-0.dtd"
   xmlns:xlink="http://www.w3.org/1999/xlink"
   xmlns="http://www.w3.org/2000/svg"
   xmlns:svg="http://www.w3.org/2000/svg">
  <sodipodi:namedview
     id="namedview1609"
     pagecolor="#ffffff"
     bordercolor="#666666"
     borderopacity="1.0"
     inkscape:pageshadow="2"
     inkscape:pageopacity="0.0"
     inkscape:pagecheckerboard="0"
     showgrid="false"
     inkscape:zoom="6.6621386"
     inkscape:cx="74.975925"
     inkscape:cy="36.850029"
     inkscape:window-width="1920"
     inkscape:window-height="986"
     inkscape:window-x="-11"
     inkscape:window-y="-11"
     inkscape:window-maximized="1"
     inkscape:current-layer="svg1607" />
  <defs
     id="defs1523">
    <path
       d="M20.121 17.897a8.766 8.766 0 0 0-1.889-2.8 8.804 8.804 0 0 0-2.8-1.89c-.01-.005-.02-.007-.029-.012A5.811 5.811 0 0 0 12 2.672a5.811 5.811 0 0 0-3.403 10.526l-.028.011a8.728 8.728 0 0 0-2.801 1.89 8.804 8.804 0 0 0-1.89 2.8 8.713 8.713 0 0 0-.69 3.237.188.188 0 0 0 .187.192h1.406a.187.187 0 0 0 .188-.183 6.987 6.987 0 0 1 2.058-4.788A6.985 6.985 0 0 1 12 14.297c1.88 0 3.645.731 4.973 2.06a6.987 6.987 0 0 1 2.058 4.788.186.186 0 0 0 .188.183h1.406c.105 0 .19-.087.188-.192a8.735 8.735 0 0 0-.692-3.24zM12 12.516a4.005 4.005 0 0 1-2.85-1.182 4.005 4.005 0 0 1-1.181-2.85 4.01 4.01 0 0 1 1.181-2.85A4.005 4.005 0 0 1 12 4.454c1.076 0 2.088.419 2.85 1.18a4.005 4.005 0 0 1 1.181 2.85c0 1.076-.42 2.089-1.181 2.85A4.005 4.005 0 0 1 12 12.516z"
       id="b" />
    <filter
       x="-0.74893289"
       y="-0.70754662"
       width="2.4978658"
       height="2.4150932"
       filterUnits="objectBoundingBox"
       id="a">
      <feOffset
         in="SourceAlpha"
         result="shadowOffsetOuter1"
         id="feOffset1460" />
      <feGaussianBlur
         stdDeviation="5.5"
         in="shadowOffsetOuter1"
         result="shadowBlurOuter1"
         id="feGaussianBlur1462" />
      <feColorMatrix
         values="0 0 0 0 0 0 0 0 0 0 0 0 0 0 0 0 0 0 0.06 0"
         in="shadowBlurOuter1"
         id="feColorMatrix1464" />
    </filter>
    <path
       d="M15.09 13.423a6.574 6.574 0 0 0-1.416-2.1 6.603 6.603 0 0 0-2.1-1.418c-.008-.003-.015-.005-.022-.009A4.359 4.359 0 1 0 4.64 6.363c0 1.454.713 2.742 1.808 3.535l-.021.009a6.546 6.546 0 0 0-2.101 1.417 6.603 6.603 0 0 0-1.935 4.528.14.14 0 0 0 .14.144h1.055a.14.14 0 0 0 .14-.137 5.24 5.24 0 0 1 1.544-3.591A5.239 5.239 0 0 1 9 10.723c1.41 0 2.733.548 3.73 1.545a5.24 5.24 0 0 1 1.543 3.591.14.14 0 0 0 .141.137h1.055a.14.14 0 0 0 .14-.144 6.551 6.551 0 0 0-.518-2.43zM9 9.387A3.004 3.004 0 0 1 6.862 8.5a3.004 3.004 0 0 1-.885-2.138c0-.807.314-1.566.885-2.137A3.004 3.004 0 0 1 9 3.34c.807 0 1.566.314 2.137.886.572.571.886 1.33.886 2.137 0 .807-.314 1.566-.886 2.138A3.004 3.004 0 0 1 9 9.387z"
       id="d" />
    <filter
       x="-0.99862958"
       y="-0.94338659"
       width="2.9972592"
       height="2.8867732"
       filterUnits="objectBoundingBox"
       id="c">
      <feOffset
         in="SourceAlpha"
         result="shadowOffsetOuter1"
         id="feOffset1468" />
      <feGaussianBlur
         stdDeviation="5.5"
         in="shadowOffsetOuter1"
         result="shadowBlurOuter1"
         id="feGaussianBlur1470" />
      <feColorMatrix
         values="0 0 0 0 0 0 0 0 0 0 0 0 0 0 0 0 0 0 0.06 0"
         in="shadowBlurOuter1"
         id="feColorMatrix1472" />
    </filter>
    <path
       d="M10.06 8.948a4.383 4.383 0 0 0-.944-1.4 4.402 4.402 0 0 0-1.4-.944l-.014-.006a2.906 2.906 0 1 0-3.403.001l-.015.006a4.357 4.357 0 0 0-1.4.944 4.402 4.402 0 0 0-1.29 3.019.094.094 0 0 0 .093.096h.704a.094.094 0 0 0 .093-.091 3.494 3.494 0 0 1 1.03-2.394A3.492 3.492 0 0 1 6 7.149c.94 0 1.822.365 2.487 1.03a3.494 3.494 0 0 1 1.029 2.394.093.093 0 0 0 .093.091h.704a.094.094 0 0 0 .093-.096 4.367 4.367 0 0 0-.345-1.62zM6 6.258c-.538 0-1.044-.21-1.425-.59a2.01 2.01 0 0 1-.59-1.426c0-.538.21-1.044.59-1.425.38-.38.887-.59 1.425-.59s1.044.21 1.425.59c.38.381.59.887.59 1.425s-.21 1.044-.59 1.425-.887.59-1.425.59z"
       id="f" />
    <filter
       x="-1.4979501"
       y="-1.4152025"
       width="3.9959001"
       height="3.830405"
       filterUnits="objectBoundingBox"
       id="e">
      <feOffset
         in="SourceAlpha"
         result="shadowOffsetOuter1"
         id="feOffset1476" />
      <feGaussianBlur
         stdDeviation="5.5"
         in="shadowOffsetOuter1"
         result="shadowBlurOuter1"
         id="feGaussianBlur1478" />
      <feColorMatrix
         values="0 0 0 0 0 0 0 0 0 0 0 0 0 0 0 0 0 0 0.06 0"
         in="shadowBlurOuter1"
         id="feColorMatrix1480" />
    </filter>
    <path
       d="M12.576 11.186a5.479 5.479 0 0 0-1.181-1.75 5.502 5.502 0 0 0-1.75-1.182l-.018-.007a3.632 3.632 0 1 0-4.254.001l-.018.008a5.455 5.455 0 0 0-1.75 1.18 5.502 5.502 0 0 0-1.613 3.774.117.117 0 0 0 .117.12h.88a.117.117 0 0 0 .116-.114 4.371 4.371 0 0 1 1.287-2.993A4.365 4.365 0 0 1 7.5 8.936c1.175 0 2.278.457 3.108 1.287a4.367 4.367 0 0 1 1.287 2.993.116.116 0 0 0 .117.114h.879a.117.117 0 0 0 .117-.12 5.46 5.46 0 0 0-.432-2.024zM7.5 7.822a2.503 2.503 0 0 1-1.781-.738 2.503 2.503 0 0 1-.739-1.781c0-.673.263-1.305.739-1.782A2.503 2.503 0 0 1 7.5 2.783c.672 0 1.305.262 1.781.738.476.477.739 1.11.739 1.782 0 .672-.263 1.305-.739 1.781a2.503 2.503 0 0 1-1.781.738z"
       id="h" />
    <filter
       x="-1.1982487"
       y="-1.1322181"
       width="3.3964974"
       height="3.2644362"
       filterUnits="objectBoundingBox"
       id="g">
      <feOffset
         in="SourceAlpha"
         result="shadowOffsetOuter1"
         id="feOffset1484" />
      <feGaussianBlur
         stdDeviation="5.5"
         in="shadowOffsetOuter1"
         result="shadowBlurOuter1"
         id="feGaussianBlur1486" />
      <feColorMatrix
         values="0 0 0 0 0 0 0 0 0 0 0 0 0 0 0 0 0 0 0.06 0"
         in="shadowBlurOuter1"
         id="feColorMatrix1488" />
    </filter>
    <path
       d="M20.121 17.897a8.766 8.766 0 0 0-1.889-2.8 8.804 8.804 0 0 0-2.8-1.89c-.01-.005-.02-.007-.029-.012A5.811 5.811 0 0 0 12 2.672a5.811 5.811 0 0 0-3.403 10.526l-.028.011a8.728 8.728 0 0 0-2.801 1.89 8.804 8.804 0 0 0-1.89 2.8 8.713 8.713 0 0 0-.69 3.237.188.188 0 0 0 .187.192h1.406a.187.187 0 0 0 .188-.183 6.987 6.987 0 0 1 2.058-4.788A6.985 6.985 0 0 1 12 14.297c1.88 0 3.645.731 4.973 2.06a6.987 6.987 0 0 1 2.058 4.788.186.186 0 0 0 .188.183h1.406c.105 0 .19-.087.188-.192a8.735 8.735 0 0 0-.692-3.24zM12 12.516a4.005 4.005 0 0 1-2.85-1.182 4.005 4.005 0 0 1-1.181-2.85 4.01 4.01 0 0 1 1.181-2.85A4.005 4.005 0 0 1 12 4.454c1.076 0 2.088.419 2.85 1.18a4.005 4.005 0 0 1 1.181 2.85c0 1.076-.42 2.089-1.181 2.85A4.005 4.005 0 0 1 12 12.516z"
       id="j" />
    <filter
       x="-0.74893289"
       y="-0.70754662"
       width="2.4978658"
       height="2.4150932"
       filterUnits="objectBoundingBox"
       id="i">
      <feOffset
         in="SourceAlpha"
         result="shadowOffsetOuter1"
         id="feOffset1492" />
      <feGaussianBlur
         stdDeviation="5.5"
         in="shadowOffsetOuter1"
         result="shadowBlurOuter1"
         id="feGaussianBlur1494" />
      <feColorMatrix
         values="0 0 0 0 0 0 0 0 0 0 0 0 0 0 0 0 0 0 0.06 0"
         in="shadowBlurOuter1"
         id="feColorMatrix1496" />
    </filter>
    <path
       d="M15.09 13.423a6.574 6.574 0 0 0-1.416-2.1 6.603 6.603 0 0 0-2.1-1.418c-.008-.003-.015-.005-.022-.009A4.359 4.359 0 1 0 4.64 6.363c0 1.454.713 2.742 1.808 3.535l-.021.009a6.546 6.546 0 0 0-2.101 1.417 6.603 6.603 0 0 0-1.935 4.528.14.14 0 0 0 .14.144h1.055a.14.14 0 0 0 .14-.137 5.24 5.24 0 0 1 1.544-3.591A5.239 5.239 0 0 1 9 10.723c1.41 0 2.733.548 3.73 1.545a5.24 5.24 0 0 1 1.543 3.591.14.14 0 0 0 .141.137h1.055a.14.14 0 0 0 .14-.144 6.551 6.551 0 0 0-.518-2.43zM9 9.387A3.004 3.004 0 0 1 6.862 8.5a3.004 3.004 0 0 1-.885-2.138c0-.807.314-1.566.885-2.137A3.004 3.004 0 0 1 9 3.34c.807 0 1.566.314 2.137.886.572.571.886 1.33.886 2.137 0 .807-.314 1.566-.886 2.138A3.004 3.004 0 0 1 9 9.387z"
       id="l" />
    <filter
       x="-0.99862958"
       y="-0.94338659"
       width="2.9972592"
       height="2.8867732"
       filterUnits="objectBoundingBox"
       id="k">
      <feOffset
         in="SourceAlpha"
         result="shadowOffsetOuter1"
         id="feOffset1500" />
      <feGaussianBlur
         stdDeviation="5.5"
         in="shadowOffsetOuter1"
         result="shadowBlurOuter1"
         id="feGaussianBlur1502" />
      <feColorMatrix
         values="0 0 0 0 0 0 0 0 0 0 0 0 0 0 0 0 0 0 0.06 0"
         in="shadowBlurOuter1"
         id="feColorMatrix1504" />
    </filter>
    <path
       d="M12.576 11.186a5.479 5.479 0 0 0-1.181-1.75 5.502 5.502 0 0 0-1.75-1.182l-.018-.007a3.632 3.632 0 1 0-4.254.001l-.018.008a5.455 5.455 0 0 0-1.75 1.18 5.502 5.502 0 0 0-1.613 3.774.117.117 0 0 0 .117.12h.88a.117.117 0 0 0 .116-.114 4.371 4.371 0 0 1 1.287-2.993A4.365 4.365 0 0 1 7.5 8.936c1.175 0 2.278.457 3.108 1.287a4.367 4.367 0 0 1 1.287 2.993.116.116 0 0 0 .117.114h.879a.117.117 0 0 0 .117-.12 5.46 5.46 0 0 0-.432-2.024zM7.5 7.822a2.503 2.503 0 0 1-1.781-.738 2.503 2.503 0 0 1-.739-1.781c0-.673.263-1.305.739-1.782A2.503 2.503 0 0 1 7.5 2.783c.672 0 1.305.262 1.781.738.476.477.739 1.11.739 1.782 0 .672-.263 1.305-.739 1.781a2.503 2.503 0 0 1-1.781.738z"
       id="n" />
    <filter
       x="-1.1982487"
       y="-1.1322181"
       width="3.3964974"
       height="3.2644362"
       filterUnits="objectBoundingBox"
       id="m">
      <feOffset
         in="SourceAlpha"
         result="shadowOffsetOuter1"
         id="feOffset1508" />
      <feGaussianBlur
         stdDeviation="5.5"
         in="shadowOffsetOuter1"
         result="shadowBlurOuter1"
         id="feGaussianBlur1510" />
      <feColorMatrix
         values="0 0 0 0 0 0 0 0 0 0 0 0 0 0 0 0 0 0 0.06 0"
         in="shadowBlurOuter1"
         id="feColorMatrix1512" />
    </filter>
    <path
       d="M10.06 8.948a4.383 4.383 0 0 0-.944-1.4 4.402 4.402 0 0 0-1.4-.944l-.014-.006a2.906 2.906 0 1 0-3.403.001l-.015.006a4.357 4.357 0 0 0-1.4.944 4.402 4.402 0 0 0-1.29 3.019.094.094 0 0 0 .093.096h.704a.094.094 0 0 0 .093-.091 3.494 3.494 0 0 1 1.03-2.394A3.492 3.492 0 0 1 6 7.149c.94 0 1.822.365 2.487 1.03a3.494 3.494 0 0 1 1.029 2.394.093.093 0 0 0 .093.091h.704a.094.094 0 0 0 .093-.096 4.367 4.367 0 0 0-.345-1.62zM6 6.258c-.538 0-1.044-.21-1.425-.59a2.01 2.01 0 0 1-.59-1.426c0-.538.21-1.044.59-1.425.38-.38.887-.59 1.425-.59s1.044.21 1.425.59c.38.381.59.887.59 1.425s-.21 1.044-.59 1.425-.887.59-1.425.59z"
       id="p" />
    <filter
       x="-1.4979501"
       y="-1.4152025"
       width="3.9959001"
       height="3.830405"
       filterUnits="objectBoundingBox"
       id="o">
      <feOffset
         in="SourceAlpha"
         result="shadowOffsetOuter1"
         id="feOffset1516" />
      <feGaussianBlur
         stdDeviation="5.5"
         in="shadowOffsetOuter1"
         result="shadowBlurOuter1"
         id="feGaussianBlur1518" />
      <feColorMatrix
         values="0 0 0 0 0 0 0 0 0 0 0 0 0 0 0 0 0 0 0.06 0"
         in="shadowBlurOuter1"
         id="feColorMatrix1520" />
    </filter>
  </defs>
  <g
     fill="none"
     fill-rule="evenodd"
     id="g1605">
    <g
       transform="translate(3 4)"
       id="g1533">
      <circle
         fill-opacity=".25"
         fill="#000"
         cx="16"
         cy="16"
         r="16"
         id="circle1525" />
      <g
         fill-rule="nonzero"
         transform="translate(4 4)"
         id="g1531">
        <use
           fill="#000"
           filter="url(#a)"
           xlink:href="#b"
           id="use1527" />
        <use
           fill="#FFF"
           xlink:href="#b"
           id="use1529" />
      </g>
    </g>
    <g
       transform="translate(47 8)"
       id="g1543">
      <circle
         fill-opacity=".25"
         fill="#000"
         cx="12"
         cy="12"
         r="12"
         id="circle1535" />
      <g
         fill-rule="nonzero"
         transform="translate(3 3)"
         id="g1541">
        <use
           fill="#000"
           filter="url(#c)"
           xlink:href="#d"
           id="use1537" />
        <use
           fill="#FFF"
           xlink:href="#d"
           id="use1539" />
      </g>
    </g>
    <g
       transform="translate(115 12)"
       id="g1553">
      <circle
         fill-opacity=".25"
         fill="#000"
         cx="8"
         cy="8"
         r="8"
         id="circle1545" />
      <g
         fill-rule="nonzero"
         transform="translate(2 2)"
         id="g1551">
        <use
           fill="#000"
           filter="url(#e)"
           xlink:href="#f"
           id="use1547" />
        <use
           fill="#FFF"
           xlink:href="#f"
           id="use1549" />
      </g>
    </g>
    <g
       transform="translate(83 10)"
       id="g1563">
      <circle
         fill-opacity=".25"
         fill="#000"
         cx="10"
         cy="10"
         r="10"
         id="circle1555" />
      <g
         fill-rule="nonzero"
         transform="translate(2.5 2.5)"
         id="g1561">
        <use
           fill="#000"
           filter="url(#g)"
           xlink:href="#h"
           id="use1557" />
        <use
           fill="#FFF"
           xlink:href="#h"
           id="use1559" />
      </g>
    </g>
    <g
       transform="translate(3 48)"
       id="g1573">
      <rect
         fill-opacity=".25"
         fill="#000"
         width="32"
         height="32"
         rx="2"
         id="rect1565" />
      <g
         fill-rule="nonzero"
         transform="translate(4 4)"
         id="g1571">
        <use
           fill="#000"
           filter="url(#i)"
           xlink:href="#j"
           id="use1567" />
        <use
           fill="#FFF"
           xlink:href="#j"
           id="use1569" />
      </g>
    </g>
    <g
       transform="translate(47 52)"
       id="g1583">
      <rect
         fill-opacity=".25"
         fill="#000"
         width="24"
         height="24"
         rx="1.5"
         id="rect1575" />
      <g
         fill-rule="nonzero"
         transform="translate(3 3)"
         id="g1581">
        <use
           fill="#000"
           filter="url(#k)"
           xlink:href="#l"
           id="use1577" />
        <use
           fill="#FFF"
           xlink:href="#l"
           id="use1579" />
      </g>
    </g>
    <g
       transform="translate(83 54)"
       id="g1593">
      <rect
         fill-opacity=".25"
         fill="#000"
         width="20"
         height="20"
         rx="1.25"
         id="rect1585" />
      <g
         fill-rule="nonzero"
         transform="translate(2.5 2.5)"
         id="g1591">
        <use
           fill="#000"
           filter="url(#m)"
           xlink:href="#n"
           id="use1587" />
        <use
           fill="#FFF"
           xlink:href="#n"
           id="use1589" />
      </g>
    </g>
    <g
       transform="translate(115 56)"
       id="g1603">
      <rect
         fill-opacity=".25"
         fill="#000"
         width="16"
         height="16"
         rx="1"
         id="rect1595" />
      <g
         fill-rule="nonzero"
         transform="translate(2 2)"
         id="g1601">
        <use
           fill="#000"
           filter="url(#o)"
           xlink:href="#p"
           id="use1597" />
        <use
           fill="#FFF"
           xlink:href="#p"
           id="use1599" />
      </g>
    </g>
  </g>
  <path
     style="fill:#000000;stroke-width:0.150102"
     d="M 15.835756,35.576463 C 10.865543,34.498248 6.9121348,31.428094 4.7143775,26.939776 1.7293619,20.843697 2.9631384,13.547307 7.786045,8.7743416 9.2462434,7.3292638 10.439981,6.4948134 12.323377,5.6026401 22.457566,0.8020294 34.300777,7.9625681 34.85501,19.225519 35.30504,28.37087 28.062682,35.918306 18.889268,35.863805 17.760946,35.857102 16.645584,35.752143 15.835756,35.576463 Z M 12.101829,28.57749 c 0.272282,-2.230741 1.578633,-4.207111 3.508774,-5.308402 0.901777,-0.514531 2.3592,-0.92049 2.647911,-0.737562 0.26295,0.166606 1.195005,0.167127 1.457451,7.51e-4 0.291621,-0.184801 1.298409,0.06818 2.398645,0.602725 1.927895,0.936656 3.516404,3.157238 3.74564,5.236044 l 0.107388,0.973885 0.938137,0.04469 0.938137,0.04469 v -0.600182 c 0,-1.66359 -0.975513,-4.030783 -2.244623,-5.446832 C 25.178244,22.9175 24.334021,22.216555 23.72324,21.82964 l -1.110512,-0.703481 0.423713,-0.356531 c 0.620899,-0.522452 1.294829,-1.656876 1.585926,-2.669588 0.795753,-2.76837 -0.565095,-5.730439 -3.200106,-6.965469 -0.760469,-0.356431 -1.038288,-0.402282 -2.437521,-0.402282 -1.480742,0 -1.641481,0.03065 -2.577504,0.491451 -1.243223,0.612037 -2.366818,1.796811 -2.844063,2.998921 -0.269617,0.679126 -0.343701,1.165867 -0.348326,2.288554 -0.0053,1.290729 0.03837,1.519332 0.460613,2.4104 0.256569,0.541437 0.746405,1.278685 1.088525,1.638328 0.342119,0.359643 0.605021,0.668236 0.584225,0.685765 -0.0208,0.01753 -0.312822,0.170484 -0.648947,0.339903 -2.391277,1.205287 -4.252334,4.046199 -4.522739,6.903979 l -0.0895,0.945881 0.960566,-0.04527 0.960566,-0.04527 z"
     id="path1684" />
  <path
     style="fill:#000000;stroke-width:0.150102"
     d="m 17.486877,20.101872 c -3.078613,-1.391954 -3.212976,-5.662822 -0.224159,-7.125114 2.054739,-1.00529 4.420521,-0.114838 5.369495,2.021015 0.460504,1.036456 0.312044,2.63454 -0.33249,3.579057 -1.134952,1.663188 -3.117727,2.291468 -4.812846,1.525042 z"
     id="path1723" />
  <path
     style="fill:#000000;stroke-width:0.150102"
     d="m 57.383738,31.819237 c -4.269484,-0.674053 -7.950182,-3.582875 -9.46687,-7.481579 -0.835882,-2.148666 -1.029344,-4.113658 -0.6303,-6.401946 0.748444,-4.291895 3.816502,-7.838208 7.983619,-9.2281181 2.665624,-0.8890985 5.667976,-0.786007 8.262023,0.2836923 3.385613,1.3961148 5.922351,4.2783448 6.975321,7.9253268 0.439621,1.522634 0.468534,4.545444 0.05777,6.040302 -1.180929,4.297709 -4.623981,7.659478 -8.847967,8.639085 -1.243223,0.288323 -3.262487,0.392341 -4.3336,0.223237 z m -3.513767,-5.532841 c 0.133201,-1.004113 0.878527,-2.432575 1.617658,-3.100335 1.026457,-0.927343 2.101005,-1.337771 3.502438,-1.337771 0.981141,0 1.356651,0.07228 2.052666,0.395104 1.675929,0.777328 2.87943,2.341254 3.075472,3.996515 l 0.09219,0.778442 h 0.729602 c 0.698392,0 0.729603,-0.01791 0.729603,-0.418769 0,-0.748359 -0.451852,-2.189369 -0.944493,-3.012099 -0.515888,-0.861555 -1.725459,-2.058613 -2.443414,-2.418136 -0.241832,-0.1211 -0.466456,-0.237924 -0.499165,-0.259609 -0.03271,-0.02168 0.21719,-0.33957 0.555334,-0.706412 1.508736,-1.636787 1.371495,-4.45232 -0.294832,-6.048528 -2.120757,-2.031517 -5.886813,-1.319994 -7.025676,1.327365 -0.731196,1.699711 -0.507247,3.418235 0.610999,4.688629 0.341999,0.388531 0.596606,0.725238 0.565794,0.748238 -0.03081,0.023 -0.369045,0.220967 -0.751629,0.439929 -1.398145,0.80019 -2.597022,2.530286 -2.96469,4.278337 -0.283715,1.348902 -0.270587,1.381055 0.56387,1.381055 h 0.731172 z"
     id="path1762" />
  <path
     style="fill:#000000;stroke-width:0.150102"
     d="m 57.789251,20.03662 c -2.118168,-1.139023 -2.294086,-3.84947 -0.334032,-5.146573 0.491573,-0.325307 0.780352,-0.400616 1.544099,-0.402675 0.802875,-0.0022 1.034141,0.06322 1.590861,0.44978 1.378742,0.957334 1.748907,2.883361 0.783419,4.076254 -0.750877,0.927733 -1.164127,1.155902 -2.197521,1.213323 -0.658053,0.03656 -1.070415,-0.01996 -1.386826,-0.190109 z"
     id="path1801" />
  <path
     style="fill:#000000;stroke-width:0.150102"
     d="M 90.286323,29.518502 C 85.237148,28.01285 82.231281,23.025914 83.3083,17.941489 c 1.004268,-4.740982 5.575076,-8.1983141 10.353128,-7.831044 5.075323,0.39012 8.918272,4.295607 9.191982,9.341558 0.16124,2.972484 -0.7663,5.391346 -2.877447,7.503879 -1.326026,1.326898 -2.922946,2.248901 -4.655235,2.687761 -1.353524,0.342904 -3.656825,0.28565 -5.034405,-0.125141 z m -1.494501,-4.580888 c 0.480197,-1.760535 1.718888,-2.980002 3.376527,-3.324127 2.347616,-0.487363 4.527675,1.024791 5.08714,3.52859 0.161895,0.724537 0.185757,0.75051 0.689545,0.75051 h 0.521846 l -0.01951,-0.772716 c -0.03555,-1.408067 -1.127831,-3.193249 -2.434153,-3.978285 -0.301607,-0.181251 -0.569884,-0.344953 -0.59617,-0.363782 -0.02629,-0.01883 0.185223,-0.339503 0.470021,-0.712608 1.773171,-2.322981 0.389009,-5.613379 -2.485236,-5.907841 -3.232229,-0.331138 -5.290259,3.316946 -3.324237,5.892576 0.291206,0.3815 0.507959,0.709043 0.481673,0.727873 -0.02629,0.01883 -0.294562,0.182531 -0.59617,0.363782 -1.211488,0.728045 -2.245368,2.327164 -2.458244,3.802206 -0.125248,0.867858 -0.01941,1.0535 0.56715,0.99478 0.427081,-0.04275 0.477636,-0.113057 0.719818,-1.000958 z"
     id="path1840" />
  <path
     style="fill:#000000;stroke-width:0.150102"
     d="m 91.946232,19.935726 c -0.86689,-0.451761 -1.234935,-0.977996 -1.32268,-1.891184 -0.130326,-1.356324 0.751099,-2.452626 2.139454,-2.661018 0.769002,-0.115427 1.807442,0.389469 2.287843,1.112363 0.40329,0.606859 0.457314,1.752652 0.113946,2.416654 -0.60692,1.173653 -2.049697,1.632313 -3.218563,1.023185 z"
     id="path1879" />
  <path
     style="fill:#000000;stroke-width:0.150102"
     d="m 121.17455,27.685864 c -3.11502,-0.755184 -5.5359,-3.435853 -6.00414,-6.648473 -0.34352,-2.356898 0.48348,-4.803001 2.22609,-6.584355 3.3336,-3.4077 8.98679,-3.039789 11.86569,0.772222 1.41707,1.876363 1.941,4.026448 1.50212,6.16427 -0.3509,1.709281 -1.0136,2.962519 -2.19189,4.145137 -1.99063,1.997922 -4.73653,2.796394 -7.39787,2.151199 z m -1.55286,-3.583051 c 0.19516,-1.301409 1.33282,-2.479389 2.68777,-2.783041 1.14659,-0.256955 2.30344,0.129161 3.20691,1.07035 0.47567,0.49552 0.94452,1.540373 0.94452,2.104878 0,0.23771 0.0891,0.28225 0.48784,0.243807 0.46204,-0.04455 0.48609,-0.07674 0.45491,-0.608914 -0.0523,-0.892732 -0.61325,-1.996426 -1.37843,-2.712162 -0.38698,-0.361973 -0.79518,-0.688662 -0.90712,-0.725974 -0.14939,-0.0498 -0.0797,-0.238822 0.2621,-0.710613 1.43977,-1.987553 0.0589,-4.656105 -2.41515,-4.667448 -2.47171,-0.01133 -3.84383,2.917734 -2.25266,4.808738 0.32244,0.383198 0.35552,0.492844 0.18186,0.602771 -0.11675,0.0739 -0.2496,0.135404 -0.29523,0.136668 -0.0456,0.0013 -0.36468,0.281235 -0.70901,0.622158 -0.73785,0.730548 -1.17458,1.583228 -1.31623,2.569807 l -0.10237,0.712984 h 0.52536 c 0.50623,0 0.52898,-0.02418 0.62493,-0.664009 z"
     id="path1918" />
  <path
     style="fill:#000000;stroke-width:0.150102"
     d="m 121.90003,19.800204 c -1.51826,-1.194261 -0.78899,-3.439091 1.11724,-3.439091 1.8031,0 2.56607,2.198136 1.17056,3.372381 -0.59239,0.498462 -1.69794,0.530699 -2.2878,0.06671 z"
     id="path1957" />
  <path
     style="fill:#000000;stroke-width:0.150102"
     d="m 115.35335,71.598631 c -0.29191,-0.291913 -0.3002,-0.50034 -0.3002,-7.54675 0,-6.315755 0.03,-7.289396 0.23366,-7.580149 l 0.23366,-0.333602 h 7.48808 7.48807 l 0.23367,0.333602 c 0.20349,0.290532 0.23366,1.251082 0.23366,7.439915 0,7.081179 -0.0305,7.551952 -0.5103,7.872313 -0.0908,0.06065 -3.45802,0.111313 -7.48263,0.112576 -7.11893,0.0022 -7.32561,-0.0058 -7.61767,-0.297905 z m 4.20369,-3.114616 c 0.003,-1.039993 0.89439,-2.35068 1.9718,-2.900332 0.7704,-0.393029 2.19437,-0.3903 2.97058,0.0057 1.02229,0.521531 1.96147,1.915872 1.96147,2.912054 0,0.181879 0.14073,0.245264 0.54454,0.245264 h 0.54455 l -0.0995,-0.622409 c -0.21884,-1.368548 -1.15409,-2.769396 -2.26342,-3.390204 -0.26782,-0.149881 -0.26226,-0.180242 0.11521,-0.628831 0.64826,-0.770417 0.8501,-1.795061 0.53752,-2.728679 -0.42565,-1.271293 -1.52618,-2.079707 -2.83121,-2.079707 -2.49093,0 -3.88448,2.91784 -2.29546,4.806283 0.37346,0.443833 0.38132,0.483001 0.12555,0.626136 -1.10481,0.618281 -2.06915,2.029632 -2.26102,3.309086 l -0.10622,0.708325 h 0.5424 c 0.41619,0 0.5426,-0.06113 0.54324,-0.262679 z"
     id="path1996" />
  <path
     style="fill:#000000;stroke-width:0.150102"
     d="m 122.50459,64.085599 c -1.17021,-0.340586 -1.7597,-1.654515 -1.21493,-2.707993 0.71531,-1.383254 2.86228,-1.328799 3.45409,0.08761 0.29052,0.695296 0.27142,1.109816 -0.0775,1.682025 -0.49332,0.809068 -1.34125,1.177143 -2.16169,0.938359 z"
     id="path2035" />
  <path
     style="fill:#000000;stroke-width:0.150102"
     d="m 84.022558,73.89699 c -0.184106,-0.03681 -0.471176,-0.240378 -0.637933,-0.452376 -0.296742,-0.377246 -0.303094,-0.579088 -0.298421,-9.4839 0.0036,-6.915497 0.04865,-9.155592 0.187627,-9.336611 0.443635,-0.577819 0.602056,-0.587401 9.711914,-0.587401 9.376035,0 9.559005,0.01272 9.815905,0.682184 0.0513,0.13364 0.0932,4.345981 0.0932,9.360759 v 9.117777 l -0.38726,0.363895 -0.38725,0.363894 -8.881542,0.01935 c -4.884848,0.01064 -9.032174,-0.01076 -9.21628,-0.04757 z m 4.741811,-4.799016 c 0.434784,-2.164947 2.08534,-3.541208 4.252201,-3.545555 2.140854,-0.0043 3.931668,1.547893 4.252241,3.685629 0.105861,0.705932 0.109292,0.709461 0.689755,0.709461 0.560557,0 0.583365,-0.01947 0.583365,-0.498113 0,-0.734177 -0.379147,-1.882957 -0.884289,-2.679315 -0.40227,-0.634179 -1.670411,-1.794003 -2.15122,-1.967475 -0.132832,-0.04792 -0.07021,-0.201956 0.203961,-0.501692 1.344135,-1.46946 1.311102,-3.687052 -0.07558,-5.073731 -1.771569,-1.771569 -4.668641,-1.374131 -5.853602,0.803033 -0.709139,1.302921 -0.590981,2.837064 0.30935,4.016562 0.408157,0.534715 0.48198,0.718393 0.32453,0.807461 -1.727605,0.977299 -2.980698,2.96387 -2.980698,4.725403 0,0.326919 0.06453,0.367867 0.579686,0.367867 h 0.579686 z"
     id="path2074" />
  <path
     style="fill:#000000;stroke-width:0.150102"
     d="m 92.012496,64.040055 c -2.346951,-1.086423 -1.610987,-4.606672 0.971242,-4.645627 2.384311,-0.03597 3.289737,2.991385 1.328994,4.443585 -0.507352,0.375763 -1.698867,0.480421 -2.300236,0.202042 z"
     id="path2113" />
  <path
     style="fill:#000000;stroke-width:0.150102"
     d="m 48.015831,75.804477 c -0.174349,-0.07045 -0.461419,-0.311682 -0.637934,-0.536085 L 47.056962,74.860388 V 64.080353 c 0,-8.038136 0.04561,-10.880141 0.179324,-11.17361 0.383628,-0.841971 0.08921,-0.821366 11.736555,-0.821366 6.468941,0 10.880017,0.05705 11.107809,0.143653 0.860653,0.32722 0.842522,0.07383 0.842522,11.774935 0,7.397258 -0.05062,10.843786 -0.162892,11.090192 -0.08959,0.19663 -0.35331,0.469992 -0.586042,0.60747 -0.384572,0.227172 -1.399504,0.249093 -11.13228,0.240445 -5.890021,-0.0052 -10.851779,-0.06715 -11.026127,-0.137595 z m 5.853017,-5.519238 c 0.284209,-2.111386 1.815354,-3.768232 4.000447,-4.32887 2.214276,-0.568127 4.55286,0.512788 5.678464,2.624639 0.266134,0.499317 0.524099,1.247455 0.573259,1.662532 l 0.08938,0.754683 H 64.94 c 0.698392,0 0.729603,-0.01792 0.729603,-0.41877 0,-0.74821 -0.451809,-2.189285 -0.944493,-3.012529 -0.515166,-0.86081 -1.671933,-1.995623 -2.423396,-2.377403 -0.252842,-0.128455 -0.47792,-0.248803 -0.500177,-0.26744 -0.02226,-0.01864 0.197412,-0.293587 0.488152,-0.611002 1.582922,-1.728147 1.431911,-4.682971 -0.317844,-6.219277 -0.890752,-0.782091 -1.773326,-1.110907 -2.981779,-1.110907 -1.782002,0 -3.157296,0.850249 -3.93416,2.432219 -0.345295,0.703144 -0.418797,1.050398 -0.418797,1.978584 0,1.266499 0.339237,2.155385 1.143953,2.997443 0.251846,0.263533 0.435215,0.494659 0.407485,0.513613 -0.02773,0.01895 -0.406086,0.257625 -0.84079,0.530379 -1.451934,0.911013 -2.491083,2.427525 -2.866998,4.184035 -0.288156,1.346446 -0.274099,1.381055 0.560942,1.381055 h 0.731172 z"
     id="path2152" />
  <path
     style="fill:#000000;stroke-width:0.150102"
     d="m 57.639144,63.967894 c -1.614347,-0.984498 -2.046173,-2.875795 -0.989625,-4.334318 0.57338,-0.791527 1.367836,-1.169095 2.447548,-1.163206 2.805746,0.0153 3.872628,3.830933 1.493103,5.339983 -0.559739,0.354976 -0.847451,0.433181 -1.591965,0.432721 -0.615565,-3.75e-4 -1.054031,-0.08916 -1.359061,-0.27518 z"
     id="path2191" />
  <path
     style="fill:#000000;stroke-width:0.150102"
     d="M 4.6058285,79.855826 C 4.0253001,79.718421 3.4700315,79.239929 3.2368332,78.676121 3.1203542,78.394507 3.0839146,74.035492 3.1121877,63.765628 l 0.039953,-14.51254 0.4440727,-0.46348 c 0.24424,-0.254914 0.6832882,-0.532914 0.9756627,-0.617779 0.35242,-0.102293 5.3377517,-0.139107 14.7912759,-0.109226 15.875322,0.05018 14.72299,-0.02976 15.295567,1.061005 0.235297,0.448239 0.251232,1.593701 0.209786,15.079645 l -0.04485,14.594558 -0.463517,0.463487 c -0.254933,0.254916 -0.727754,0.524774 -1.050713,0.599682 -0.717378,0.166393 -27.9995153,0.161494 -28.7035948,-0.0051 z m 7.5063845,-7.356584 c 0.360997,-2.858738 2.422737,-5.1731 5.272863,-5.91894 0.459226,-0.120173 0.835606,-0.148496 0.919857,-0.06922 0.18652,0.175513 1.241212,0.17373 1.349993,-0.0023 0.125333,-0.202794 1.592709,0.17898 2.550492,0.663573 1.856162,0.939134 3.433843,3.174578 3.654832,5.178602 l 0.107388,0.973825 0.938137,0.04469 0.938137,0.04469 v -0.600181 c 0,-1.874749 -1.038483,-4.217228 -2.527378,-5.70094 -0.550009,-0.548095 -1.38205,-1.195559 -1.848977,-1.438806 l -0.84896,-0.44227 0.654535,-0.728 c 0.359994,-0.4004 0.843345,-1.112485 1.074113,-1.582412 0.378641,-0.771053 0.419577,-1.008487 0.419577,-2.433639 0,-1.477485 -0.03134,-1.642896 -0.486523,-2.567494 -0.585936,-1.190206 -1.659536,-2.244255 -2.858038,-2.805993 -0.763344,-0.357779 -1.032649,-0.401736 -2.434364,-0.397344 -1.314098,0.0041 -1.700004,0.06169 -2.321676,0.346378 -3.119213,1.428403 -4.390784,4.980269 -2.878434,8.040302 0.301822,0.610694 0.791862,1.323794 1.088978,1.584665 0.297116,0.260871 0.516231,0.495329 0.486922,0.521019 -0.02931,0.02569 -0.289699,0.166534 -0.578645,0.31299 -1.395609,0.707381 -3.002576,2.354581 -3.775915,3.87045 -0.3819,0.748584 -0.877245,2.689728 -0.877245,3.437716 v 0.583559 l 0.93804,-0.04469 0.938041,-0.04469 z"
     id="path2230" />
  <path
     style="fill:#000000;stroke-width:0.150102"
     d="m 17.73209,64.239044 c -2.631892,-0.788444 -3.522347,-4.447031 -1.571591,-6.457151 0.823614,-0.848678 1.627522,-1.186113 2.835452,-1.190161 2.269218,-0.0076 3.883613,1.613473 3.8913,3.907408 0.0075,2.237681 -1.633375,3.901765 -3.824303,3.878399 -0.495337,-0.0053 -1.094223,-0.06761 -1.330858,-0.138495 z"
     id="path2269" />
</svg>
