<?xml version="1.0" encoding="UTF-8" standalone="no"?>
<svg
   width="360"
   height="310"
   viewBox="0 0 360 310"
   fill="none"
   version="1.1"
   id="svg3056"
   sodipodi:docname="cards.svg"
   inkscape:version="1.1.1 (3bf5ae0d25, 2021-09-20)"
   xmlns:inkscape="http://www.inkscape.org/namespaces/inkscape"
   xmlns:sodipodi="http://sodipodi.sourceforge.net/DTD/sodipodi-0.dtd"
   xmlns="http://www.w3.org/2000/svg"
   xmlns:svg="http://www.w3.org/2000/svg">
  <sodipodi:namedview
     id="namedview3058"
     pagecolor="#ffffff"
     bordercolor="#666666"
     borderopacity="1.0"
     inkscape:pageshadow="2"
     inkscape:pageopacity="0.0"
     inkscape:pagecheckerboard="0"
     showgrid="false"
     inkscape:zoom="2.5225806"
     inkscape:cx="180.17263"
     inkscape:cy="153.21611"
     inkscape:window-width="1920"
     inkscape:window-height="986"
     inkscape:window-x="-11"
     inkscape:window-y="-11"
     inkscape:window-maximized="1"
     inkscape:current-layer="svg3056" />
  <g
     filter="url(#filter0_dd_2159_2859)"
     id="g3027">
    <rect
       x="16"
       y="14"
       width="327"
       height="282"
       rx="8"
       fill="#374151"
       id="rect3005" />
    <rect
       x="40"
       y="46"
       width="204"
       height="18"
       rx="9"
       fill="#F9FAFB"
       id="rect3007" />
    <rect
       x="40"
       y="80"
       width="279"
       height="18"
       rx="9"
       fill="#9CA3AF"
       id="rect3009" />
    <rect
       x="40"
       y="122"
       width="279"
       height="12"
       rx="6"
       fill="#9CA3AF"
       id="rect3011" />
    <rect
       x="40"
       y="146"
       width="225"
       height="12"
       rx="6"
       fill="#9CA3AF"
       id="rect3013" />
    <rect
       x="40"
       y="170"
       width="269"
       height="12"
       rx="6"
       fill="#9CA3AF"
       id="rect3015" />
    <rect
       x="40"
       y="194"
       width="157"
       height="12"
       rx="6"
       fill="#9CA3AF"
       id="rect3017" />
    <path
       d="M47.2547 255.222C50.2275 253.542 53.5852 252.661 57 252.667C60.5417 252.667 63.8666 253.595 66.7452 255.222M61.25 244.167C61.25 245.294 60.8022 246.375 60.0052 247.172C59.2082 247.969 58.1272 248.417 57 248.417C55.8728 248.417 54.7918 247.969 53.9948 247.172C53.1978 246.375 52.75 245.294 52.75 244.167C52.75 243.039 53.1978 241.958 53.9948 241.161C54.7918 240.364 55.8728 239.917 57 239.917C58.1272 239.917 59.2082 240.364 60.0052 241.161C60.8022 241.958 61.25 243.039 61.25 244.167ZM69.75 247C69.75 248.674 69.4202 250.332 68.7795 251.879C68.1387 253.426 67.1996 254.832 66.0156 256.016C64.8317 257.2 63.4261 258.139 61.8792 258.779C60.3323 259.42 58.6744 259.75 57 259.75C55.3256 259.75 53.6677 259.42 52.1208 258.779C50.5739 258.139 49.1683 257.2 47.9844 256.016C46.8004 254.832 45.8613 253.426 45.2205 251.879C44.5798 250.332 44.25 248.674 44.25 247C44.25 243.618 45.5933 240.375 47.9844 237.984C50.3755 235.593 53.6185 234.25 57 234.25C60.3815 234.25 63.6245 235.593 66.0156 237.984C68.4067 240.375 69.75 243.618 69.75 247Z"
       stroke="#9CA3AF"
       stroke-width="2"
       stroke-linecap="round"
       stroke-linejoin="round"
       id="path3019" />
    <rect
       x="86"
       y="231"
       width="144"
       height="12"
       rx="6"
       fill="#9CA3AF"
       id="rect3021" />
    <rect
       x="86"
       y="251"
       width="76"
       height="12"
       rx="6"
       fill="#9CA3AF"
       id="rect3023" />
    <rect
       x="16.5"
       y="14.5"
       width="326"
       height="281"
       rx="7.5"
       stroke="#4B5563"
       id="rect3025" />
  </g>
  <defs
     id="defs3054">
    <filter
       id="filter0_dd_2159_2859"
       x="10"
       y="12"
       width="339"
       height="294"
       filterUnits="userSpaceOnUse"
       color-interpolation-filters="sRGB">
      <feFlood
         flood-opacity="0"
         result="BackgroundImageFix"
         id="feFlood3029" />
      <feColorMatrix
         in="SourceAlpha"
         type="matrix"
         values="0 0 0 0 0 0 0 0 0 0 0 0 0 0 0 0 0 0 127 0"
         result="hardAlpha"
         id="feColorMatrix3031" />
      <feOffset
         dy="4"
         id="feOffset3033" />
      <feGaussianBlur
         stdDeviation="3"
         id="feGaussianBlur3035" />
      <feColorMatrix
         type="matrix"
         values="0 0 0 0 0 0 0 0 0 0 0 0 0 0 0 0 0 0 0.1 0"
         id="feColorMatrix3037" />
      <feBlend
         mode="normal"
         in2="BackgroundImageFix"
         result="effect1_dropShadow_2159_2859"
         id="feBlend3039" />
      <feColorMatrix
         in="SourceAlpha"
         type="matrix"
         values="0 0 0 0 0 0 0 0 0 0 0 0 0 0 0 0 0 0 127 0"
         result="hardAlpha"
         id="feColorMatrix3041" />
      <feOffset
         dy="2"
         id="feOffset3043" />
      <feGaussianBlur
         stdDeviation="2"
         id="feGaussianBlur3045" />
      <feColorMatrix
         type="matrix"
         values="0 0 0 0 0 0 0 0 0 0 0 0 0 0 0 0 0 0 0.06 0"
         id="feColorMatrix3047" />
      <feBlend
         mode="normal"
         in2="effect1_dropShadow_2159_2859"
         result="effect2_dropShadow_2159_2859"
         id="feBlend3049" />
      <feBlend
         mode="normal"
         in="SourceGraphic"
         in2="effect2_dropShadow_2159_2859"
         result="shape"
         id="feBlend3051" />
    </filter>
  </defs>
  <path
     style="fill:#000000;stroke-width:0.396419"
     d="m 22.199488,294.65148 c -1.211202,-0.29425 -3.349095,-2.0415 -4.194672,-3.42822 -0.74193,-1.21673 -0.757637,-4.02893 -0.759089,-135.90014 -10e-4,-93.99783 0.125559,-134.99466 0.419252,-135.773656 0.62573,-1.659696 2.724791,-3.647968 4.318716,-4.090771 0.911105,-0.253111 56.352762,-0.39111 157.706145,-0.392544 139.76325,-0.002 156.45551,0.06231 157.76043,0.607537 1.96579,0.821359 2.84984,1.666566 3.71594,3.552657 0.70202,1.528793 0.72814,6.399496 0.72814,135.773657 0,129.37416 -0.0261,134.24486 -0.72814,135.77366 -0.8661,1.88609 -1.75015,2.7313 -3.71594,3.55265 -1.30554,0.54549 -17.95209,0.60491 -157.95864,0.56377 -86.074617,-0.0253 -156.85608,-0.13267 -157.292142,-0.2386 z M 159.4657,262.1011 c 1.72458,-1.23006 2.60964,-3.02953 2.61758,-5.32197 0.007,-2.12823 -0.81334,-3.52205 -2.91684,-4.95368 L 157.8559,250.9335 H 123.91447 89.973048 l -1.422836,0.96685 c -3.139932,2.13363 -3.612428,6.4623 -1.014216,9.2915 1.90392,2.07318 0.747283,2.01308 36.939704,1.91954 l 33.69566,-0.0871 z m -96.574565,-2.5132 c 2.726264,-1.26821 5.095663,-3.56464 6.563568,-6.36145 0.98741,-1.88132 1.099858,-2.49862 1.103691,-6.05893 0.0036,-3.45598 -0.128285,-4.24371 -1.029667,-6.1445 -1.287983,-2.71604 -3.844092,-5.25858 -6.693582,-6.65805 -1.881581,-0.92411 -2.675554,-1.07213 -5.750746,-1.07213 -3.026519,0 -3.90576,0.15848 -5.795657,1.04463 -3.133855,1.46943 -5.282925,3.56592 -6.786821,6.62077 -1.155795,2.34775 -1.291297,2.98141 -1.283619,6.00273 0.0071,2.78536 0.187194,3.76037 1.02679,5.55821 1.759224,3.76706 4.51618,6.32437 8.282619,7.68285 2.738691,0.98778 7.530159,0.70384 10.363424,-0.61413 z M 227.38703,242.10527 c 3.68642,-2.46269 3.60334,-7.5668 -0.16866,-10.36166 l -1.11922,-0.82929 h -68.126 -68.126009 l -1.094728,0.81734 c -1.791891,1.33784 -2.632042,2.77529 -2.806701,4.80211 -0.20324,2.35848 0.706273,4.29735 2.61355,5.5715 l 1.34699,0.89985 h 68.066898 68.06689 z m -33.29462,-36.83298 c 2.02808,-1.13984 3.31127,-3.68661 3.00563,-5.96533 -0.25301,-1.88632 -1.20433,-3.31201 -3.04669,-4.56591 l -1.31054,-0.89195 H 118.62387 44.506926 l -1.493816,0.83958 c -1.807297,1.01576 -3.172957,3.29903 -3.172957,5.30493 0,1.97724 1.346676,4.26367 3.115274,5.28922 l 1.44355,0.83707 74.076463,0.009 74.07646,0.009 1.54051,-0.86581 z m 110.32414,-23.29826 c 0.90943,-0.21093 2.12944,-0.93732 2.9464,-1.75428 1.22299,-1.22299 1.41564,-1.68954 1.56812,-3.79751 0.14743,-2.03825 0.0339,-2.60753 -0.74797,-3.7485 -0.50699,-0.7399 -1.46512,-1.67439 -2.12917,-2.07664 -1.16606,-0.70634 -5.64418,-0.73506 -130.83654,-0.83921 -117.82133,-0.098 -129.781593,-0.0503 -131.302664,0.52401 -5.433216,2.05134 -5.37587,9.54389 0.08783,11.47562 1.354096,0.47874 20.372696,0.56178 130.223784,0.56856 75.70908,0.005 129.27673,-0.14017 130.19021,-0.35205 z m -42.58941,-24.49702 c 4.14224,-2.08114 4.32165,-8.35731 0.30884,-10.80396 -1.28085,-0.78095 -2.22485,-0.78775 -109.52068,-0.78921 -104.630469,-0.002 -108.274615,0.023 -109.609976,0.73351 -1.722418,0.91653 -3.150056,3.33711 -3.158649,5.35553 -0.0086,2.02242 1.319982,4.30595 3.108752,5.3432 l 1.44355,0.83706 108.024293,0.008 c 102.06322,0.008 108.10043,-0.0298 109.40387,-0.68463 z m 54.38268,-24.18097 c 1.74166,-1.02507 2.86209,-3.08247 2.86209,-5.25555 0,-2.48867 -1.12697,-4.33734 -3.32241,-5.45006 l -1.76434,-0.89422 -135.06135,0.10138 -135.06135,0.10139 -1.094715,0.81733 c -1.791886,1.33785 -2.632032,2.7753 -2.806688,4.80211 -0.203239,2.35849 0.706273,4.29736 2.613551,5.57151 l 1.346987,0.89984 H 179.47636 c 128.38647,0 135.61709,-0.0367 136.73346,-0.69373 z m -2.44384,-35.921219 c 3.48119,-1.85414 5.28821,-4.717193 5.28821,-8.378657 0,-3.661465 -1.80702,-6.524517 -5.28821,-8.378658 -1.34442,-0.716064 -5.47029,-0.742728 -132.99872,-0.859548 -95.304066,-0.0873 -132.177308,7.92e-4 -133.663175,0.319193 -5.91334,1.267293 -8.938062,7.584106 -6.231901,13.014668 1.173304,2.354513 2.933601,3.867158 5.398602,4.639086 1.405151,0.44003 24.365925,0.518394 133.901844,0.457 128.15707,-0.07183 132.24838,-0.09673 133.59335,-0.813084 z m -75.64553,-33.76734 c 3.6192,-1.233182 5.88113,-4.544346 5.86701,-8.588491 -0.0105,-3.009715 -0.93079,-5.247876 -2.80893,-6.831396 -2.8006,-2.361287 4.34173,-2.202939 -99.36428,-2.202939 H 46.346001 l -2.14555,1.288363 c -6.237834,3.745704 -5.686405,12.906747 0.963273,16.003147 l 2.010189,0.936038 94.574527,0.004 c 84.25734,0.0036 94.77061,-0.06294 96.37201,-0.608595 z"
     id="path3115" />
  <path
     style="fill:#000000;stroke-width:0.396419"
     d="m 46.527253,251.77826 c -1.328092,-2.74619 -1.260133,-7.07724 0.153979,-9.81309 3.54708,-6.86247 12.103983,-8.53142 18.057409,-3.52194 2.007767,1.68942 3.643712,5.4345 3.643712,8.34135 0,2.3366 -0.746171,5.31769 -1.583583,6.32671 -0.287015,0.34583 -1.10985,0.21418 -3.265154,-0.52242 -4.064516,-1.38908 -9.250467,-1.3786 -13.265979,0.0268 l -2.852567,0.99839 z m 13.450112,-3.08552 c 2.314505,-1.46679 3.104194,-4.82233 1.683301,-7.15266 -2.968771,-4.86892 -9.921769,-3.00209 -9.926448,2.66519 -0.0035,4.28185 4.607069,6.79181 8.243147,4.48747 z"
     id="path3154" />
  <path
     style="fill:#000000;stroke-width:0.396419"
     d="m 55.82195,246.96654 c -1.993592,-0.80323 -2.264094,-3.91906 -0.456843,-5.26223 1.248583,-0.92796 2.677942,-0.712 3.888627,0.58751 1.124217,1.20671 1.001659,2.55853 -0.354954,3.91514 -1.218451,1.21846 -1.664579,1.32859 -3.07683,0.75958 z"
     id="path3193" />
  <path
     style="fill:#000000;stroke-width:0.396419"
     d="m 53.120205,257.83745 c -0.872123,-0.31099 -2.101475,-0.97811 -2.731892,-1.48248 l -1.146215,-0.91705 2.335473,-0.73611 c 2.981466,-0.93971 7.553835,-0.96932 10.561176,-0.0684 1.253676,0.37557 2.279412,0.84234 2.279412,1.03726 0,0.19492 -1.098826,0.9035 -2.441834,1.5746 -2.772112,1.38525 -6.022559,1.60259 -8.85612,0.59218 z"
     id="path3232" />
</svg>
