<?xml version="1.0" encoding="UTF-8" standalone="no"?>
<svg
   width="360"
   height="260"
   viewBox="0 0 360 260"
   fill="none"
   version="1.1"
   id="svg3553"
   sodipodi:docname="inputs.svg"
   inkscape:version="1.1.1 (3bf5ae0d25, 2021-09-20)"
   xmlns:inkscape="http://www.inkscape.org/namespaces/inkscape"
   xmlns:sodipodi="http://sodipodi.sourceforge.net/DTD/sodipodi-0.dtd"
   xmlns="http://www.w3.org/2000/svg"
   xmlns:svg="http://www.w3.org/2000/svg">
  <sodipodi:namedview
     id="namedview3555"
     pagecolor="#ffffff"
     bordercolor="#666666"
     borderopacity="1.0"
     inkscape:pageshadow="2"
     inkscape:pageopacity="0.0"
     inkscape:pagecheckerboard="0"
     showgrid="false"
     inkscape:zoom="3.0076923"
     inkscape:cx="180.03836"
     inkscape:cy="128.50384"
     inkscape:window-width="1920"
     inkscape:window-height="986"
     inkscape:window-x="-11"
     inkscape:window-y="-11"
     inkscape:window-maximized="1"
     inkscape:current-layer="svg3553" />
  <g
     filter="url(#filter0_dd_2159_2898)"
     id="g3452">
    <rect
       x="16"
       y="19"
       width="327"
       height="55"
       rx="8"
       fill="#374151"
       id="rect3446" />
    <rect
       x="40"
       y="42"
       width="150"
       height="9"
       rx="2"
       fill="#6B7280"
       id="rect3448" />
    <rect
       x="16.5"
       y="19.5"
       width="326"
       height="54"
       rx="7.5"
       stroke="#4B5563"
       id="rect3450" />
  </g>
  <g
     filter="url(#filter1_dd_2159_2898)"
     id="g3462">
    <rect
       x="16"
       y="94"
       width="327"
       height="55"
       rx="8"
       fill="#374151"
       id="rect3454" />
    <path
       d="M61 130.5L55 124.5M57 119.5C57 120.419 56.8189 121.33 56.4672 122.179C56.1154 123.028 55.5998 123.8 54.9497 124.45C54.2997 125.1 53.5281 125.615 52.6788 125.967C51.8295 126.319 50.9193 126.5 50 126.5C49.0807 126.5 48.1705 126.319 47.3212 125.967C46.4719 125.615 45.7003 125.1 45.0503 124.45C44.4002 123.8 43.8846 123.028 43.5328 122.179C43.1811 121.33 43 120.419 43 119.5C43 117.643 43.7375 115.863 45.0503 114.55C46.363 113.237 48.1435 112.5 50 112.5C51.8565 112.5 53.637 113.237 54.9497 114.55C56.2625 115.863 57 117.643 57 119.5Z"
       stroke="#6B7280"
       stroke-width="2"
       stroke-linecap="round"
       stroke-linejoin="round"
       id="path3456" />
    <rect
       x="80"
       y="117"
       width="150"
       height="9"
       rx="2"
       fill="#6B7280"
       id="rect3458" />
    <rect
       x="16.5"
       y="94.5"
       width="326"
       height="54"
       rx="7.5"
       stroke="#4B5563"
       id="rect3460" />
  </g>
  <rect
     x="16"
     y="169"
     width="81.86"
     height="7.06802"
     rx="2"
     fill="#6B7280"
     id="rect3464" />
  <g
     filter="url(#filter2_dd_2159_2898)"
     id="g3474">
    <rect
       x="16"
       y="186.068"
       width="327"
       height="55"
       rx="8"
       fill="#374151"
       id="rect3466" />
    <path
       d="M61 222.568L55 216.568M57 211.568C57 212.487 56.8189 213.397 56.4672 214.247C56.1154 215.096 55.5998 215.868 54.9497 216.518C54.2997 217.168 53.5281 217.683 52.6788 218.035C51.8295 218.387 50.9193 218.568 50 218.568C49.0807 218.568 48.1705 218.387 47.3212 218.035C46.4719 217.683 45.7003 217.168 45.0503 216.518C44.4002 215.868 43.8846 215.096 43.5328 214.247C43.1811 213.397 43 212.487 43 211.568C43 209.711 43.7375 207.931 45.0503 206.618C46.363 205.305 48.1435 204.568 50 204.568C51.8565 204.568 53.637 205.305 54.9497 206.618C56.2625 207.931 57 209.711 57 211.568Z"
       stroke="#6B7280"
       stroke-width="2"
       stroke-linecap="round"
       stroke-linejoin="round"
       id="path3468" />
    <rect
       x="90"
       y="209.068"
       width="150"
       height="9"
       rx="2"
       fill="#6B7280"
       id="rect3470" />
    <rect
       x="16.5"
       y="186.568"
       width="326"
       height="54"
       rx="7.5"
       stroke="#4B5563"
       id="rect3472" />
  </g>
  <defs
     id="defs3551">
    <filter
       id="filter0_dd_2159_2898"
       x="10"
       y="17"
       width="339"
       height="67"
       filterUnits="userSpaceOnUse"
       color-interpolation-filters="sRGB">
      <feFlood
         flood-opacity="0"
         result="BackgroundImageFix"
         id="feFlood3476" />
      <feColorMatrix
         in="SourceAlpha"
         type="matrix"
         values="0 0 0 0 0 0 0 0 0 0 0 0 0 0 0 0 0 0 127 0"
         result="hardAlpha"
         id="feColorMatrix3478" />
      <feOffset
         dy="4"
         id="feOffset3480" />
      <feGaussianBlur
         stdDeviation="3"
         id="feGaussianBlur3482" />
      <feColorMatrix
         type="matrix"
         values="0 0 0 0 0 0 0 0 0 0 0 0 0 0 0 0 0 0 0.1 0"
         id="feColorMatrix3484" />
      <feBlend
         mode="normal"
         in2="BackgroundImageFix"
         result="effect1_dropShadow_2159_2898"
         id="feBlend3486" />
      <feColorMatrix
         in="SourceAlpha"
         type="matrix"
         values="0 0 0 0 0 0 0 0 0 0 0 0 0 0 0 0 0 0 127 0"
         result="hardAlpha"
         id="feColorMatrix3488" />
      <feOffset
         dy="2"
         id="feOffset3490" />
      <feGaussianBlur
         stdDeviation="2"
         id="feGaussianBlur3492" />
      <feColorMatrix
         type="matrix"
         values="0 0 0 0 0 0 0 0 0 0 0 0 0 0 0 0 0 0 0.06 0"
         id="feColorMatrix3494" />
      <feBlend
         mode="normal"
         in2="effect1_dropShadow_2159_2898"
         result="effect2_dropShadow_2159_2898"
         id="feBlend3496" />
      <feBlend
         mode="normal"
         in="SourceGraphic"
         in2="effect2_dropShadow_2159_2898"
         result="shape"
         id="feBlend3498" />
    </filter>
    <filter
       id="filter1_dd_2159_2898"
       x="10"
       y="92"
       width="339"
       height="67"
       filterUnits="userSpaceOnUse"
       color-interpolation-filters="sRGB">
      <feFlood
         flood-opacity="0"
         result="BackgroundImageFix"
         id="feFlood3501" />
      <feColorMatrix
         in="SourceAlpha"
         type="matrix"
         values="0 0 0 0 0 0 0 0 0 0 0 0 0 0 0 0 0 0 127 0"
         result="hardAlpha"
         id="feColorMatrix3503" />
      <feOffset
         dy="4"
         id="feOffset3505" />
      <feGaussianBlur
         stdDeviation="3"
         id="feGaussianBlur3507" />
      <feColorMatrix
         type="matrix"
         values="0 0 0 0 0 0 0 0 0 0 0 0 0 0 0 0 0 0 0.1 0"
         id="feColorMatrix3509" />
      <feBlend
         mode="normal"
         in2="BackgroundImageFix"
         result="effect1_dropShadow_2159_2898"
         id="feBlend3511" />
      <feColorMatrix
         in="SourceAlpha"
         type="matrix"
         values="0 0 0 0 0 0 0 0 0 0 0 0 0 0 0 0 0 0 127 0"
         result="hardAlpha"
         id="feColorMatrix3513" />
      <feOffset
         dy="2"
         id="feOffset3515" />
      <feGaussianBlur
         stdDeviation="2"
         id="feGaussianBlur3517" />
      <feColorMatrix
         type="matrix"
         values="0 0 0 0 0 0 0 0 0 0 0 0 0 0 0 0 0 0 0.06 0"
         id="feColorMatrix3519" />
      <feBlend
         mode="normal"
         in2="effect1_dropShadow_2159_2898"
         result="effect2_dropShadow_2159_2898"
         id="feBlend3521" />
      <feBlend
         mode="normal"
         in="SourceGraphic"
         in2="effect2_dropShadow_2159_2898"
         result="shape"
         id="feBlend3523" />
    </filter>
    <filter
       id="filter2_dd_2159_2898"
       x="10"
       y="184.068"
       width="339"
       height="67"
       filterUnits="userSpaceOnUse"
       color-interpolation-filters="sRGB">
      <feFlood
         flood-opacity="0"
         result="BackgroundImageFix"
         id="feFlood3526" />
      <feColorMatrix
         in="SourceAlpha"
         type="matrix"
         values="0 0 0 0 0 0 0 0 0 0 0 0 0 0 0 0 0 0 127 0"
         result="hardAlpha"
         id="feColorMatrix3528" />
      <feOffset
         dy="4"
         id="feOffset3530" />
      <feGaussianBlur
         stdDeviation="3"
         id="feGaussianBlur3532" />
      <feColorMatrix
         type="matrix"
         values="0 0 0 0 0 0 0 0 0 0 0 0 0 0 0 0 0 0 0.1 0"
         id="feColorMatrix3534" />
      <feBlend
         mode="normal"
         in2="BackgroundImageFix"
         result="effect1_dropShadow_2159_2898"
         id="feBlend3536" />
      <feColorMatrix
         in="SourceAlpha"
         type="matrix"
         values="0 0 0 0 0 0 0 0 0 0 0 0 0 0 0 0 0 0 127 0"
         result="hardAlpha"
         id="feColorMatrix3538" />
      <feOffset
         dy="2"
         id="feOffset3540" />
      <feGaussianBlur
         stdDeviation="2"
         id="feGaussianBlur3542" />
      <feColorMatrix
         type="matrix"
         values="0 0 0 0 0 0 0 0 0 0 0 0 0 0 0 0 0 0 0.06 0"
         id="feColorMatrix3544" />
      <feBlend
         mode="normal"
         in2="effect1_dropShadow_2159_2898"
         result="effect2_dropShadow_2159_2898"
         id="feBlend3546" />
      <feBlend
         mode="normal"
         in="SourceGraphic"
         in2="effect2_dropShadow_2159_2898"
         result="shape"
         id="feBlend3548" />
    </filter>
  </defs>
  <path
     style="fill:#000000;stroke-width:0.332481"
     d="m 21.96484,72.572168 c -1.499238,-0.381865 -3.196256,-1.88761 -4.016213,-3.56354 l -0.84493,-1.726975 0.09265,-21.310658 0.09265,-21.310657 1.01127,-1.438601 c 0.556199,-0.791231 1.603514,-1.774046 2.327366,-2.184035 l 1.316095,-0.745433 157.460492,-0.0055 157.46049,-0.0055 1.46534,0.773895 c 0.96215,0.508148 1.80785,1.326814 2.46278,2.384074 l 0.99744,1.610179 0.10498,20.307742 c 0.0746,14.437869 -0.006,20.818326 -0.27789,22.074186 -0.45526,2.100477 -1.88497,3.885477 -3.81401,4.761823 -1.28341,0.583039 -7.14555,0.604307 -158.26372,0.574201 C 93.227621,72.750241 22.318961,72.662366 21.96484,72.572168 Z M 189.27385,50.684472 c 0.68468,-0.479571 0.73894,-0.776708 0.73894,-4.04671 0,-2.81732 -0.11099,-3.651772 -0.55025,-4.137158 -0.52996,-0.585593 -3.27402,-0.607833 -74.39259,-0.60293 -40.613278,0.0028 -74.006951,0.115013 -74.208156,0.249361 -0.809753,0.540686 -1.130336,1.83392 -1.130336,4.559775 0,2.596482 0.07598,2.939043 0.816089,3.679147 l 0.816089,0.816089 h 73.585634 c 66.06264,0 73.66118,-0.05291 74.32458,-0.517574 z"
     id="path3612" />
  <path
     style="fill:#000000;stroke-width:0.332481"
     d="m 21.988839,147.5451 c -1.730402,-0.4581 -4.030791,-2.71506 -4.497009,-4.41211 -0.247552,-0.9011 -0.363603,-7.97667 -0.359912,-21.94373 0.0051,-19.22226 0.04632,-20.70378 0.610915,-21.946587 0.761482,-1.676201 2.640555,-3.346816 4.274933,-3.800687 1.860463,-0.516654 313.441094,-0.491009 314.985054,0.02593 1.70917,0.572253 3.21357,1.830594 4.04245,3.381273 l 0.74501,1.393781 v 21.27877 21.27877 l -0.8312,1.4833 c -0.91616,1.63491 -2.43979,2.82031 -4.28314,3.33234 -1.68552,0.46819 -312.915634,0.39792 -314.687101,-0.0711 z m 39.964965,-16.84379 c 0.08788,-0.62157 -0.476102,-1.3864 -2.58711,-3.50843 l -2.699481,-2.71358 0.710375,-1.60592 c 0.558478,-1.26253 0.683315,-2.08489 0.583813,-3.84583 -0.162586,-2.8774 -1.406726,-5.02543 -3.749745,-6.474 -1.436786,-0.8883 -1.922857,-1.00624 -4.14722,-1.00624 -2.164499,0 -2.744274,0.13202 -4.112981,0.93656 -6.205126,3.64741 -5.058857,12.66881 1.888434,14.86242 1.612562,0.50916 4.201598,0.23001 5.853808,-0.63117 l 1.239063,-0.64584 2.789375,2.80716 c 2.930961,2.94966 4.007045,3.41371 4.231669,1.82487 z m 167.771586,-5.43002 c 0.81161,-1.15873 0.72772,-6.57494 -0.11801,-7.61937 l -0.63559,-0.78491 h -74.03316 c -72.90101,0 -74.040378,0.01 -74.505077,0.64539 -0.70321,0.9617 -0.663279,7.26153 0.05055,7.97536 0.471847,0.47185 7.702198,0.52247 74.623097,0.52247 h 74.10062 z"
     id="path3651" />
  <path
     style="fill:#000000;stroke-width:0.332481"
     d="m 16.642894,175.14341 c -0.331626,-0.47346 -0.517574,-1.47027 -0.517574,-2.77455 0,-3.47521 -4.413006,-3.13612 40.814451,-3.13612 35.555246,0 39.651755,0.0533 40.120879,0.52247 0.732794,0.73279 0.732794,4.87188 0,5.60467 -0.469137,0.46914 -4.573856,0.52247 -40.211324,0.52247 H 17.160468 Z"
     id="path3690" />
  <path
     style="fill:#000000;stroke-width:0.332481"
     d="m 22.029873,239.57879 c -1.865807,-0.66702 -2.816459,-1.3921 -3.827175,-2.91907 l -0.913695,-1.3804 -0.101447,-20.97086 c -0.07042,-14.55717 0.01043,-21.35387 0.264358,-22.22318 0.479798,-1.64256 2.160154,-3.52264 3.824007,-4.27851 1.283027,-0.58287 7.178044,-0.60567 157.931239,-0.61091 110.16932,-0.004 156.97811,0.1 157.87895,0.3501 2.00038,0.55545 4.05469,2.82534 4.52654,5.00156 0.27819,1.283 0.35795,7.5118 0.28261,22.06885 l -0.10498,20.28133 -0.8312,1.48254 c -0.53178,0.94849 -1.42065,1.84675 -2.46753,2.49361 l -1.63632,1.01106 -156.79079,0.0693 c -130.184823,0.0575 -157.001842,-0.006 -158.034567,-0.37538 z M 61.953804,222.7985 c 0.08788,-0.62158 -0.476102,-1.3864 -2.58711,-3.50843 l -2.699481,-2.71358 0.710375,-1.60593 c 1.038637,-2.34801 0.817085,-5.5037 -0.540571,-7.69966 -3.412184,-5.51908 -11.799881,-4.83606 -14.372759,1.17039 -0.279854,0.65333 -0.513615,2.08858 -0.51947,3.18946 -0.03172,5.96344 6.369821,9.88683 11.697202,7.16901 l 1.274129,-0.65002 2.797697,2.81553 c 2.939243,2.95798 4.015208,3.42319 4.239988,1.83323 z m 177.746016,-5.43002 c 0.37859,-0.54052 0.51757,-1.57128 0.51757,-3.83865 0,-2.84999 -0.0659,-3.16562 -0.81828,-3.91798 l -0.81828,-0.81828 -73.85048,0.0853 c -72.669075,0.0839 -73.858019,0.0956 -74.322379,0.7307 -0.719914,0.98457 -0.659442,7.07457 0.07834,7.88982 0.529938,0.58557 3.284774,0.60802 74.623089,0.60802 h 74.07284 z"
     id="path3729" />
  <path
     style="fill:#000000;stroke-width:0.332481"
     d="m 47.434464,216.74799 c -3.890211,-1.97679 -4.346276,-7.16282 -0.863515,-9.81925 2.44802,-1.86719 6.365093,-1.2633 8.16049,1.2581 1.116577,1.56809 1.264484,4.46571 0.31425,6.15642 -1.554751,2.76631 -4.850495,3.80758 -7.611225,2.40473 z"
     id="path3768" />
  <path
     style="fill:#000000;stroke-width:0.332481"
     d="m 47.483627,124.69911 c -2.412933,-1.09551 -3.804747,-4.04167 -3.116617,-6.59719 0.977206,-3.62907 4.991368,-5.43237 8.316445,-3.73605 1.868493,0.95324 2.779824,2.41043 2.946228,4.71093 0.117246,1.62092 0.0038,2.15138 -0.726607,3.39774 -1.525948,2.60383 -4.572297,3.51722 -7.419449,2.22457 z"
     id="path3807" />
  <path
     style="fill:#ffffff;stroke-width:0.332481"
     d="m 57.945499,220.53337 -2.894928,-2.89493 -1.329777,0.74738 c -5.101329,2.8671 -11.412303,-0.85854 -11.453947,-6.76178 -0.04807,-6.81455 8.12033,-10.39426 13.048689,-5.71844 2.38328,2.26115 3.096519,6.1686 1.665546,9.12459 l -0.704341,1.45498 2.726121,2.79294 c 2.543635,2.60598 3.140737,3.7164 2.171827,4.03892 -0.183844,0.0612 -1.636979,-1.19145 -3.22919,-2.78366 z m -5.807122,-3.24014 c 2.382321,-0.84964 3.884641,-3.02861 3.884641,-5.6343 0,-1.86169 -0.455903,-3.09086 -1.600436,-4.31497 -2.44594,-2.616 -6.537502,-2.50788 -8.947034,0.23642 -2.854403,3.25099 -1.771931,7.92607 2.237823,9.66492 1.43547,0.6225 2.77334,0.63699 4.425006,0.0479 z"
     id="path3920" />
  <path
     style="fill:#ffffff;stroke-width:0.332481"
     d="m 91.016624,217.43209 c -0.708623,-0.28483 -0.748082,-0.48325 -0.748082,-3.76174 0,-2.81369 0.10283,-3.5464 0.549769,-3.91736 0.461588,-0.38312 12.352519,-0.4709 74.135389,-0.54727 73.48842,-0.0908 73.5865,-0.0901 74.25841,0.58184 0.57942,0.57942 0.6728,1.10404 0.6728,3.77984 0,2.58779 -0.10161,3.19899 -0.60802,3.65728 -0.56206,0.50866 -6.16073,0.54866 -74.0601,0.52918 -42.96336,-0.0123 -73.7626,-0.14589 -74.200166,-0.32177 z"
     id="path3996" />
  <path
     style="fill:#ffffff;stroke-width:0.332481"
     d="m 23.246883,147.32142 c -2.402475,-0.23608 -4.106359,-1.35723 -5.139059,-3.38149 -0.655831,-1.28554 -0.669087,-1.80985 -0.578773,-22.89127 l 0.09243,-21.575599 1.014425,-1.277451 c 0.557934,-0.702598 1.680056,-1.604864 2.493606,-2.005036 l 1.479182,-0.727584 95.920716,-0.191577 c 52.7564,-0.105367 123.52494,-0.07719 157.26343,0.06262 l 61.34271,0.254199 1.28713,0.800121 c 0.70792,0.440067 1.71783,1.479269 2.24424,2.309339 l 0.95712,1.509218 v 21.34235 21.34234 l -1.08056,1.59791 c -0.66317,0.98068 -1.64658,1.89419 -2.5459,2.36494 l -1.46534,0.76703 -155.63185,-0.0507 C 95.302874,147.54289 24.358796,147.43069 23.246883,147.32142 Z m 38.695284,-16.69326 c 0.08018,-0.69085 -0.419085,-1.42059 -2.446121,-3.57534 l -2.546856,-2.70732 0.534356,-1.33549 c 0.611396,-1.52803 0.695264,-4.55274 0.177897,-6.4159 -0.451485,-1.62589 -2.283129,-3.65304 -4.091901,-4.52865 -1.836005,-0.88879 -5.148143,-0.91696 -7.035097,-0.0598 -3.063687,1.39165 -5.148994,5.19485 -4.688894,8.55164 0.740336,5.40135 6.561832,8.67059 11.472117,6.44251 l 1.45066,-0.65824 2.829336,2.6782 c 3.047422,2.88464 4.149061,3.29249 4.344503,1.60842 z M 229.9542,125.26359 c 0.62326,-1.16458 0.50947,-6.18342 -0.16987,-7.49207 l -0.56603,-1.09037 -74.11778,0.0929 c -68.754284,0.0862 -74.158018,0.13316 -74.673673,0.64886 -0.438489,0.43853 -0.557833,1.21086 -0.565141,3.65729 -0.0109,3.65031 0.20689,4.50556 1.196213,4.69742 0.402801,0.0781 33.979341,0.1624 74.614531,0.1873 l 73.88216,0.0453 z"
     id="path4035" />
  <path
     style="fill:#ffffff;stroke-width:0.332481"
     d="m 48.043478,124.77289 c -2.027399,-0.76181 -3.661263,-3.14021 -3.651819,-5.31591 0.007,-1.60402 1.178914,-3.6833 2.625488,-4.65815 0.844155,-0.56887 1.597702,-0.75791 3.021216,-0.75791 3.404895,0 5.31818,2.0588 5.319177,5.72373 4.65e-4,1.65751 -0.133174,2.05246 -1.046281,3.09243 -0.575738,0.65573 -1.466007,1.40902 -1.978374,1.67397 -0.916557,0.47397 -3.31219,0.60904 -4.289407,0.24184 z"
     id="path4074" />
  <path
     style="fill:#ffffff;stroke-width:0.332481"
     d="m 57.781324,128.57552 -2.921989,-2.80129 -1.662404,0.77869 c -2.817908,1.31992 -5.775736,0.91012 -8.159767,-1.13052 -3.660374,-3.13314 -3.776847,-8.2472 -0.264509,-11.61399 2.913045,-2.79233 7.233398,-2.83473 10.33855,-0.10147 2.608295,2.29592 3.398226,6.06892 1.912969,9.13705 l -0.747433,1.54399 2.726121,2.79294 c 2.597601,2.66127 3.143473,3.71544 2.103271,4.06178 -0.221551,0.0738 -1.717714,-1.12647 -3.324809,-2.66718 z m -5.210758,-3.53385 c 2.597725,-1.17967 3.904573,-3.998 3.313881,-7.14666 -0.620706,-3.30865 -4.971432,-5.44911 -8.272443,-4.06985 -1.898665,0.79331 -3.887068,3.70997 -3.887068,5.70169 0,0.98333 0.796229,2.93548 1.574598,3.86052 1.799204,2.13823 4.734677,2.80611 7.271032,1.6543 z"
     id="path4113" />
  <path
     style="fill:#ffffff;stroke-width:0.332481"
     d="m 146.4578,125.68756 c -35.93286,-0.0968 -65.519501,-0.29709 -65.748081,-0.44503 -0.288251,-0.18656 -0.415601,-1.32024 -0.415601,-3.6997 0,-2.7855 0.103397,-3.51654 0.549774,-3.88703 0.462338,-0.38374 12.284856,-0.45631 74.336228,-0.45631 72.65678,0 73.79367,0.01 74.25841,0.64539 0.32625,0.44613 0.47196,1.58501 0.47196,3.68888 0,4.53426 0.51116,4.30799 -9.75933,4.32004 -4.59848,0.005 -37.7605,-0.0694 -73.69336,-0.16624 z"
     id="path4152" />
  <path
     style="fill:#000000;stroke-width:0.332481"
     d="m 47.142567,124.02715 c -1.295665,-0.79001 -2.423897,-2.88473 -2.423897,-4.5003 0,-1.61556 1.128232,-3.71028 2.423897,-4.50029 0.703847,-0.42915 1.667025,-0.6511 2.829187,-0.65192 3.409565,-0.002 5.050447,1.68955 5.052579,5.20982 0.0011,1.73019 -0.135502,2.21501 -0.869563,3.08739 -0.478944,0.5692 -1.294404,1.25395 -1.812134,1.52168 -1.352213,0.69925 -3.914841,0.61726 -5.200069,-0.16638 z"
     id="path4191" />
  <path
     style="fill:#000000;stroke-width:0.332481"
     d="M 162.58312,147.29017 C 25.826976,147.127 22.244187,147.10685 21.010645,146.49413 c -0.696064,-0.34575 -1.668571,-1.15691 -2.161126,-1.80258 l -0.895555,-1.17395 -0.09013,-21.92923 -0.09013,-21.929219 0.849478,-1.113723 c 0.467212,-0.612547 1.555085,-1.528503 2.417495,-2.035458 l 1.568018,-0.921735 H 179.74684 336.88499 l 1.24286,0.884329 c 0.68357,0.486381 1.74986,1.597436 2.36952,2.46901 l 1.12667,1.584686 v 20.98002 c 0,18.9488 -0.0531,21.05962 -0.54896,21.80209 -1.01463,1.51937 -2.60044,3.03674 -3.84316,3.67729 -1.17282,0.60451 -2.04869,0.63179 -17.78773,0.55387 -9.10479,-0.0451 -79.69227,-0.15729 -156.86107,-0.24936 z M 62.007673,130.69047 c 0,-1.0198 -0.742932,-2.09829 -3.266362,-4.74169 l -1.486924,-1.55761 0.418082,-1.49324 c 0.236639,-0.84519 0.36624,-2.63271 0.298637,-4.11887 -0.140137,-3.08051 -0.950785,-4.62153 -3.280389,-6.23595 -1.203963,-0.83435 -1.812456,-1.00736 -3.91661,-1.11361 -4.067887,-0.20542 -6.160074,0.80331 -7.92995,3.82338 -1.023318,1.74616 -1.411719,5.03585 -0.809871,6.85947 1.484076,4.4968 6.808028,6.8864 11.271463,5.05909 l 1.438744,-0.58901 1.719823,1.65064 c 2.678276,2.57053 3.864721,3.42933 4.737666,3.42933 0.668858,0 0.805691,-0.16506 0.805691,-0.97193 z m 168.261037,-6.09328 c 0.46723,-1.72001 0.21223,-5.82035 -0.4393,-7.06386 l -0.46991,-0.89685 -71.291,0.0671 c -39.21006,0.0369 -72.778173,0.16361 -74.595823,0.28151 l -3.304816,0.21437 -0.303638,1.16368 c -0.412918,1.58249 -0.131725,6.47163 0.409726,7.12404 0.392444,0.47286 7.587083,0.52302 75.022491,0.52302 h 74.58841 z"
     id="path4267" />
  <path
     style="fill:#ffffff;stroke-width:0.332481"
     d="m 40.7289,50.204604 c -0.565221,-0.565221 -0.664961,-1.10827 -0.664961,-3.620456 0,-2.323341 0.12445,-3.106954 0.581841,-3.663616 l 0.581841,-0.708122 73.877249,0.08945 c 52.42539,0.06347 73.9817,0.193897 74.23695,0.449156 0.384,0.38402 0.52323,6.252802 0.17017,7.172878 -0.11367,0.296216 -0.66466,0.630173 -1.22442,0.742125 -0.55976,0.111952 -33.83984,0.203549 -73.95573,0.203549 -72.49467,0 -72.94202,-0.004 -73.60294,-0.664961 z"
     id="path4306" />
</svg>
