<?xml version="1.0" encoding="UTF-8" standalone="no"?>
<svg
   width="158px"
   height="22px"
   viewBox="0 0 158 22"
   version="1.1"
   id="svg63"
   sodipodi:docname="rating.svg"
   inkscape:version="1.1.1 (3bf5ae0d25, 2021-09-20)"
   xmlns:inkscape="http://www.inkscape.org/namespaces/inkscape"
   xmlns:sodipodi="http://sodipodi.sourceforge.net/DTD/sodipodi-0.dtd"
   xmlns="http://www.w3.org/2000/svg"
   xmlns:svg="http://www.w3.org/2000/svg">
  <defs
     id="defs67" />
  <sodipodi:namedview
     id="namedview65"
     pagecolor="#ffffff"
     bordercolor="#666666"
     borderopacity="1.0"
     inkscape:pageshadow="2"
     inkscape:pageopacity="0.0"
     inkscape:pagecheckerboard="0"
     showgrid="false"
     inkscape:zoom="5.4018987"
     inkscape:cx="91.912126"
     inkscape:cy="-1.2032806"
     inkscape:window-width="1920"
     inkscape:window-height="986"
     inkscape:window-x="-11"
     inkscape:window-y="-11"
     inkscape:window-maximized="1"
     inkscape:current-layer="svg63" />
  <title
     id="title39">Rate</title>
  <g
     id="页面-1"
     stroke="none"
     stroke-width="1"
     fill="none"
     fill-rule="evenodd">
    <g
       id="Ant-Design-组件缩略图"
       transform="translate(-1294.000000, -142.000000)">
      <g
         id="Rate"
         transform="translate(1294.000000, 142.000000)">
        <path
           id="Text"
           d="m 142.30078,2.609375 c -0.50586,0 -1.0319,0.068359 -1.57422,0.2050781 -0.53776,0.1321615 -0.96745,0.2779948 -1.29101,0.4375 v 1.4277344 h 0.0684 c 0.43294,-0.2825521 0.89323,-0.5013021 1.38086,-0.65625 0.48763,-0.1549479 0.94791,-0.2304687 1.38085,-0.2304687 0.28256,-1e-7 0.53451,0.020833 0.75782,0.066406 0.2233,0.045573 0.43294,0.1276042 0.6289,0.2460938 0.18685,0.1184895 0.33269,0.2721354 0.4375,0.4589843 0.10482,0.1822917 0.15821,0.3964844 0.15821,0.6425781 0,0.5559896 -0.20834,0.9798178 -0.62305,1.2714844 -0.41016,0.2871094 -0.95964,0.4316406 -1.65234,0.4316406 h -0.48047 v 0.8164063 c 0.62938,-0.063697 0.62367,-0.068865 1.58008,-0.021484 0.0262,0.0013 0.0535,-6.3e-6 0.0801,0 0.0791,-0.2899977 0.30897,-0.6050678 0.72852,-0.8847656 0.77668,-0.5177907 1.2054,-0.8083171 1.64258,-1.09375 0.0689,-0.2099543 0.11328,-0.4298378 0.11328,-0.6640625 0,-0.4147135 -0.0853,-0.7760417 -0.25391,-1.0859375 -0.16862,-0.3098958 -0.41797,-0.5742187 -0.74609,-0.7929687 -0.30534,-0.2005209 -0.64518,-0.3463542 -1.02344,-0.4375 -0.37825,-0.091146 -0.81575,-0.1367188 -1.3125,-0.1367188 z m 11.4082,0.2109375 v 5.2441406 c 0.26888,-0.054687 0.5879,-0.109375 0.95704,-0.1640625 0.37369,-0.054687 0.76106,-0.082031 1.1621,-0.082031 0.41928,0 0.79753,0.036458 1.13477,0.109375 0.3418,0.068359 0.63216,0.188151 0.86914,0.3613281 0.21419,0.1458333 0.37956,0.3404948 0.49805,0.5820313 0.12304,0.2415364 0.18554,0.5377604 0.18554,0.8886718 0,0.3600264 -0.0534,0.6777344 -0.1582,0.9511724 -0.10026,0.273437 -0.25065,0.507161 -0.45117,0.703124 -0.23698,0.227865 -0.50716,0.38737 -0.8125,0.478516 -0.30078,0.09115 -0.61393,0.136719 -0.9375,0.136719 -0.48307,0 -0.97526,-0.08203 -1.47656,-0.246094 -0.5013,-0.16862 -0.9388,-0.370443 -1.3125,-0.607422 h -0.0957 v 1.441407 c 0.35547,0.164062 0.79167,0.304036 1.30664,0.417968 0.51498,0.11849 1.04948,0.175782 1.60547,0.175782 0.59701,0 1.1211,-0.08333 1.57227,-0.251954 0.45573,-0.173177 0.84766,-0.41927 1.17578,-0.738281 0.30078,-0.296224 0.53776,-0.660807 0.71094,-1.09375 0.17318,-0.432943 0.25976,-0.88737 0.25976,-1.361328 0,-0.5970052 -0.10026,-1.0917969 -0.30078,-1.4882812 -0.20052,-0.3964844 -0.48307,-0.7220053 -0.84765,-0.9726563 -0.34636,-0.2369792 -0.72592,-0.4010417 -1.14063,-0.4921875 -0.41471,-0.095703 -0.89779,-0.1425781 -1.44922,-0.1425781 -0.15039,0 -0.33008,0.00456 -0.53515,0.013672 -0.20508,0.00911 -0.4056,0.022786 -0.60157,0.041016 V 4.0175781 h 4.80664 V 2.8203125 Z M 145.17578,8.1875 c -0.09,0.057489 -0.17889,0.1159572 -0.26953,0.171875 -0.0258,0.015906 -0.0507,0.03034 -0.0762,0.044922 0.0978,0.067623 0.19552,0.1368389 0.29101,0.2070312 0.035,0.025733 0.0687,0.053555 0.10352,0.080078 0.019,-0.020861 0.0565,-0.063307 0.0703,-0.078125 0.0419,-0.044898 0.0872,-0.085676 0.13281,-0.1269531 -0.0759,-0.1100012 -0.1614,-0.2077722 -0.25195,-0.2988281 z m 3.45313,2.863281 V 13 h 1.63476 v -1.949219 z m -9.48829,0.242188 v 1.277343 c 0.35092,0.159506 0.80079,0.305339 1.34766,0.4375 0.41333,0.103332 0.83408,0.152501 1.25781,0.177735 -0.0933,-0.205939 -0.10231,-0.463589 -0.19531,-0.673828 -0.0123,-0.02782 -0.007,0.103907 -0.0312,0.08594 -0.0395,-0.02914 -0.0359,-0.09218 -0.0449,-0.140625 -0.0271,-0.141807 -0.043,-0.286917 -0.0645,-0.429687 -4.4e-4,-0.01961 -0.004,-0.0389 -0.006,-0.05859 -0.25995,-0.04212 -0.52338,-0.104667 -0.79297,-0.191406 -0.25566,-0.08225 -0.49367,-0.176437 -0.7168,-0.279297 -0.22936,-0.02178 -0.45991,-0.0747 -0.70312,-0.183594 -0.0155,-0.0069 -0.0345,-0.01441 -0.0508,-0.02148 z" />
        <g
           id="Rate/_Resource/Star+unselected"
           transform="translate(104.000000, 3.000000)"
           fill="#000000"
           fill-opacity="0.04">
          <path
             d="M14.3886837,6.37641211 C14.1796604,6.17267922 14.0842913,5.87914938 14.1336555,5.59147323 L14.9174679,1.02224826 C14.9787809,0.660183861 14.9175685,0.400689958 14.6206793,0.184424923 C14.4526922,0.0623018619 14.2528417,3.20934945e-06 14.052971,3.20934945e-06 C13.8994673,3.20934945e-06 13.7454607,0.0366944403 13.6040264,0.111042461 L9.41261655,2.37000729 C9.15428936,2.5058091 8.84567266,2.5058091 8.58734547,2.37000729 L4.57188854,0.111022345 C4.24651537,-0.0603442099 3.85260765,-0.0313774487 3.55473279,0.184404807 C3.2578436,0.400669842 3.02069836,0.659680966 3.08299701,1.02222814 L4.0431848,5.68631926 C4.09252887,5.9739954 3.99715983,6.26752525 3.7881566,6.47125814 L0.292230604,9.22104865 C0.028170413,9.47738437 -0.0659715611,9.86117384 0.0469988078,10.2106659 C0.16091462,10.560178 0.462651716,10.8145826 0.826627118,10.8676883 L5.37386551,11.6657025 C5.66260779,11.7077043 5.91220472,11.8890282 6.04138843,12.1506342 L8.13488064,16.568528 C8.2970945,16.8982261 8.63260604,17.1067867 9.00044367,17.1067867 C9.36828131,17.1067867 9.70282729,16.8982462 9.86600671,16.568528 L11.8773862,12.1507348 C12.0065498,11.8890483 12.2561869,11.7076439 12.5449896,11.6656623 L17.1742602,10.8676883 C17.5372902,10.8150654 17.8399727,10.560178 17.9529431,10.2106659 C18.0663962,9.86117384 17.9708059,9.47740448 17.7082142,9.22106876 L14.3886837,6.37641211 Z"
             id="Shape-Copy-4"
             transform="translate(9.000000, 8.553393) scale(1, -1) translate(-9.000000, -8.553393) " />
        </g>
        <g
           id="Rate/_Resource/Star_half+selected"
           transform="translate(78.000000, 3.000000)">
          <g
             id="Group">
            <path
               d="M14.3886837,6.37641211 C14.1796604,6.17267922 14.0842913,5.87914938 14.1336555,5.59147323 L14.9174679,1.02224826 C14.9787809,0.660183861 14.9175685,0.400689958 14.6206793,0.184424923 C14.4526922,0.0623018619 14.2528417,3.20934945e-06 14.052971,3.20934945e-06 C13.8994673,3.20934945e-06 13.7454607,0.0366944403 13.6040264,0.111042461 L9.41261655,2.37000729 C9.15428936,2.5058091 8.84567266,2.5058091 8.58734547,2.37000729 L4.57188854,0.111022345 C4.24651537,-0.0603442099 3.85260765,-0.0313774487 3.55473279,0.184404807 C3.2578436,0.400669842 3.02069836,0.659680966 3.08299701,1.02222814 L4.0431848,5.68631926 C4.09252887,5.9739954 3.99715983,6.26752525 3.7881566,6.47125814 L0.292230604,9.22104865 C0.028170413,9.47738437 -0.0659715611,9.86117384 0.0469988078,10.2106659 C0.16091462,10.560178 0.462651716,10.8145826 0.826627118,10.8676883 L5.37386551,11.6657025 C5.66260779,11.7077043 5.91220472,11.8890282 6.04138843,12.1506342 L8.13488064,16.568528 C8.2970945,16.8982261 8.63260604,17.1067867 9.00044367,17.1067867 C9.36828131,17.1067867 9.70282729,16.8982462 9.86600671,16.568528 L11.8773862,12.1507348 C12.0065498,11.8890483 12.2561869,11.7076439 12.5449896,11.6656623 L17.1742602,10.8676883 C17.5372902,10.8150654 17.8399727,10.560178 17.9529431,10.2106659 C18.0663962,9.86117384 17.9708059,9.47740448 17.7082142,9.22106876 L14.3886837,6.37641211 Z"
               id="Shape-Copy-5"
               fill-opacity="0.04"
               fill="#000000"
               transform="translate(9.000000, 8.553393) scale(1, -1) translate(-9.000000, -8.553393) " />
            <path
               d="M8.97816303,14.7671228 C8.97158084,13.3567769 8.96657991,11.4396632 8.98581094,9.54615385 C9.01773657,6.40271944 8.98581053,3.35968632 8.98581053,2.43208441 L4.51698142,0.109688997 C4.19551589,-0.0596194926 3.80633889,-0.0310006142 3.51204142,0.182190156 C3.21871779,0.395857907 2.9844206,0.651758379 3.04597106,1.00995147 L3.99462726,5.61802813 C4.04337873,5.90224936 3.94915504,6.192254 3.74266189,6.39354011 L0.288720995,9.11030639 C0.0278320941,9.36356359 -0.0651792609,9.74274386 0.0464343651,10.0880386 C0.158982079,10.4333532 0.457095396,10.6847024 0.816699554,10.7371704 L5.30932686,11.5256006 C5.59460143,11.567098 5.84120077,11.7462442 5.96883302,12.0047085 L8.03718296,16.3695445 C8.19744868,16.695283 8.62239052,16.8835594 8.98581053,16.8835594 C8.98927129,16.6430546 8.98324573,15.856175 8.97816303,14.7671228 Z"
               id="Shape-Copy-2"
               fill="#000000"
               transform="translate(4.500000, 8.441780) scale(1, -1) translate(-4.500000, -8.441780) " />
          </g>
        </g>
        <g
           id="Rate/_Resource/Star+selected"
           transform="translate(52.000000, 3.000000)"
           fill="#000000">
          <path
             d="M14.3886837,6.37641211 C14.1796604,6.17267922 14.0842913,5.87914938 14.1336555,5.59147323 L14.9174679,1.02224826 C14.9787809,0.660183861 14.9175685,0.400689958 14.6206793,0.184424923 C14.4526922,0.0623018619 14.2528417,3.20934945e-06 14.052971,3.20934945e-06 C13.8994673,3.20934945e-06 13.7454607,0.0366944403 13.6040264,0.111042461 L9.41261655,2.37000729 C9.15428936,2.5058091 8.84567266,2.5058091 8.58734547,2.37000729 L4.57188854,0.111022345 C4.24651537,-0.0603442099 3.85260765,-0.0313774487 3.55473279,0.184404807 C3.2578436,0.400669842 3.02069836,0.659680966 3.08299701,1.02222814 L4.0431848,5.68631926 C4.09252887,5.9739954 3.99715983,6.26752525 3.7881566,6.47125814 L0.292230604,9.22104865 C0.028170413,9.47738437 -0.0659715611,9.86117384 0.0469988078,10.2106659 C0.16091462,10.560178 0.462651716,10.8145826 0.826627118,10.8676883 L5.37386551,11.6657025 C5.66260779,11.7077043 5.91220472,11.8890282 6.04138843,12.1506342 L8.13488064,16.568528 C8.2970945,16.8982261 8.63260604,17.1067867 9.00044367,17.1067867 C9.36828131,17.1067867 9.70282729,16.8982462 9.86600671,16.568528 L11.8773862,12.1507348 C12.0065498,11.8890483 12.2561869,11.7076439 12.5449896,11.6656623 L17.1742602,10.8676883 C17.5372902,10.8150654 17.8399727,10.560178 17.9529431,10.2106659 C18.0663962,9.86117384 17.9708059,9.47740448 17.7082142,9.22106876 L14.3886837,6.37641211 Z"
             id="Shape"
             transform="translate(9.000000, 8.553393) scale(1, -1) translate(-9.000000, -8.553393) " />
        </g>
        <g
           id="g54"
           transform="translate(26.000000, 3.000000)"
           fill="#000000">
          <path
             d="M14.3886837,6.37641211 C14.1796604,6.17267922 14.0842913,5.87914938 14.1336555,5.59147323 L14.9174679,1.02224826 C14.9787809,0.660183861 14.9175685,0.400689958 14.6206793,0.184424923 C14.4526922,0.0623018619 14.2528417,3.20934945e-06 14.052971,3.20934945e-06 C13.8994673,3.20934945e-06 13.7454607,0.0366944403 13.6040264,0.111042461 L9.41261655,2.37000729 C9.15428936,2.5058091 8.84567266,2.5058091 8.58734547,2.37000729 L4.57188854,0.111022345 C4.24651537,-0.0603442099 3.85260765,-0.0313774487 3.55473279,0.184404807 C3.2578436,0.400669842 3.02069836,0.659680966 3.08299701,1.02222814 L4.0431848,5.68631926 C4.09252887,5.9739954 3.99715983,6.26752525 3.7881566,6.47125814 L0.292230604,9.22104865 C0.028170413,9.47738437 -0.0659715611,9.86117384 0.0469988078,10.2106659 C0.16091462,10.560178 0.462651716,10.8145826 0.826627118,10.8676883 L5.37386551,11.6657025 C5.66260779,11.7077043 5.91220472,11.8890282 6.04138843,12.1506342 L8.13488064,16.568528 C8.2970945,16.8982261 8.63260604,17.1067867 9.00044367,17.1067867 C9.36828131,17.1067867 9.70282729,16.8982462 9.86600671,16.568528 L11.8773862,12.1507348 C12.0065498,11.8890483 12.2561869,11.7076439 12.5449896,11.6656623 L17.1742602,10.8676883 C17.5372902,10.8150654 17.8399727,10.560178 17.9529431,10.2106659 C18.0663962,9.86117384 17.9708059,9.47740448 17.7082142,9.22106876 L14.3886837,6.37641211 Z"
             id="path52"
             transform="translate(9.000000, 8.553393) scale(1, -1) translate(-9.000000, -8.553393) " />
        </g>
        <g
           id="g58"
           transform="translate(0.000000, 3.000000)"
           fill="#000000">
          <path
             d="M14.3886837,6.37641211 C14.1796604,6.17267922 14.0842913,5.87914938 14.1336555,5.59147323 L14.9174679,1.02224826 C14.9787809,0.660183861 14.9175685,0.400689958 14.6206793,0.184424923 C14.4526922,0.0623018619 14.2528417,3.20934945e-06 14.052971,3.20934945e-06 C13.8994673,3.20934945e-06 13.7454607,0.0366944403 13.6040264,0.111042461 L9.41261655,2.37000729 C9.15428936,2.5058091 8.84567266,2.5058091 8.58734547,2.37000729 L4.57188854,0.111022345 C4.24651537,-0.0603442099 3.85260765,-0.0313774487 3.55473279,0.184404807 C3.2578436,0.400669842 3.02069836,0.659680966 3.08299701,1.02222814 L4.0431848,5.68631926 C4.09252887,5.9739954 3.99715983,6.26752525 3.7881566,6.47125814 L0.292230604,9.22104865 C0.028170413,9.47738437 -0.0659715611,9.86117384 0.0469988078,10.2106659 C0.16091462,10.560178 0.462651716,10.8145826 0.826627118,10.8676883 L5.37386551,11.6657025 C5.66260779,11.7077043 5.91220472,11.8890282 6.04138843,12.1506342 L8.13488064,16.568528 C8.2970945,16.8982261 8.63260604,17.1067867 9.00044367,17.1067867 C9.36828131,17.1067867 9.70282729,16.8982462 9.86600671,16.568528 L11.8773862,12.1507348 C12.0065498,11.8890483 12.2561869,11.7076439 12.5449896,11.6656623 L17.1742602,10.8676883 C17.5372902,10.8150654 17.8399727,10.560178 17.9529431,10.2106659 C18.0663962,9.86117384 17.9708059,9.47740448 17.7082142,9.22106876 L14.3886837,6.37641211 Z"
             id="path56"
             transform="translate(9.000000, 8.553393) scale(1, -1) translate(-9.000000, -8.553393) " />
        </g>
      </g>
    </g>
  </g>
</svg>
